<svg t="1560338280892" class="icon" style="" viewBox="0 0 1024 1024" version="1.1"
  xmlns="http://www.w3.org/2000/svg" p-id="13415" xmlns:xlink="http://www.w3.org/1999/xlink"
  width="128" height="128">
  <defs>
    <style type="text/css"></style>
  </defs>
  <path
    d="M960.186 639.965H768.149V448.209h-64.012v191.756H512.099v63.919h192.037v191.773l64.012-0.017V703.883h192.037v-63.918z m0 0M832.162 127.99H64.012V63.946l768.15-0.078zM768.149 127.99h64.012v255.964h-64.012zM128.025 831.721l-64.013 0.164V127.99h63.978z"
    p-id="13416"></path>
  <path
    d="M64.212 831.721h319.862v63.919H64.212zM192.08 319.891h384.075v-63.919H192.08v63.919z m0 127.768l320.062 0.069v-63.919H192.08v63.85z m0 128.317h192.037v-63.891l-192.037-0.028v63.919z m0 0"
    p-id="13417"></path>
</svg>
