<?xml version="1.0" standalone="no"?><!DOCTYPE svg PUBLIC "-//W3C//DTD SVG 1.1//EN" "http://www.w3.org/Graphics/SVG/1.1/DTD/svg11.dtd"><svg t="1572840813936" class="icon" viewBox="0 0 1024 1024" version="1.1" xmlns="http://www.w3.org/2000/svg" p-id="4137" xmlns:xlink="http://www.w3.org/1999/xlink" width="128" height="128"><defs><style type="text/css"></style></defs><path d="M971.4 139.6H52.6c-29 0-52.6 23.9-52.6 53.2v638.3c0 29.4 23.6 53.2 52.6 53.2h918.8c29.1 0 52.6-23.8 52.6-53.2V192.8c0-29.3-23.6-53.2-52.6-53.2zM478 664.3c0 6-1.6 12.1-5 16.6-3.3 4.6-7.6 6.9-12 6.9h-97.7c-2.2 0-4.3-1.2-6-3.5-1.6-2.3-2.5-5.3-2.5-8.3V573c0-3-0.8-6-2.5-8.3-1.6-2.3-3.8-3.4-6-3.4H238.8c-2.2 0-4.3 1.2-6 3.4-1.7 2.3-2.5 5.3-2.5 8.3v103.2c0 3-0.8 6-2.5 8.3-1.6 2.3-3.8 3.5-6 3.5h-95.7c-4.3 0-8.7-2.3-12-6.9-3.3-4.6-5-10.6-5-16.6V520.2c26.9-33.7 153.3-192.2 154.7-194 8.2-10.3 19.6-21.4 31.2-21.4 11.5 0 20.2 9.7 29.4 21.4 1 1.3 126.4 160.8 153.6 195.3v142.8z m410.5 10.1H599.6c-13 0-23.6-10.9-23.6-24.3s10.5-24.3 23.6-24.3h288.9c13 0 23.6 10.9 23.6 24.3-0.1 13.4-10.6 24.3-23.6 24.3z m0-145.6H599.6c-13 0-23.6-10.9-23.6-24.3s10.5-24.3 23.6-24.3h288.9c13 0 23.6 10.9 23.6 24.3-0.1 13.5-10.6 24.3-23.6 24.3z m0-146.3H599.6c-13 0-23.6-10.9-23.6-24.3s10.5-24.3 23.6-24.3h288.9c13 0 23.6 10.9 23.6 24.3-0.1 13.4-10.6 24.3-23.6 24.3z" p-id="4138"></path></svg>