<?xml version="1.0" standalone="no"?><!DOCTYPE svg PUBLIC "-//W3C//DTD SVG 1.1//EN" "http://www.w3.org/Graphics/SVG/1.1/DTD/svg11.dtd"><svg t="1572845642627" class="icon" viewBox="0 0 1024 1024" version="1.1" xmlns="http://www.w3.org/2000/svg" p-id="5217" xmlns:xlink="http://www.w3.org/1999/xlink" width="128" height="128"><defs><style type="text/css"></style></defs><path d="M1010.16945049 753.17066208l-34.57196019 10.82977066c0.83305929 7.49753356 2.08264821 14.57853743 2.08264821 22.49260059 0 7.49753356-1.24958894 14.99506707-2.49917782 22.07607098l34.57196016 10.82977068c8.33059282 2.08264821 14.99506707 7.9140632 18.74383385 15.4115967 3.74876676 7.49753356 4.99835569 16.24465601 2.08264823 24.15871918-5.41488532 16.66118561-23.74218953 25.40830806-41.23643446 20.4099524l-34.98848985-10.82977066c-7.49753356 13.32894853-16.24465601 25.40830806-27.07442666 36.23807873l21.24301169 28.32401561c5.41488532 6.66447425 7.49753356 14.99506707 5.83141497 23.3256599-1.24958894 8.33059282-6.24794461 15.4115967-12.91241885 19.99342272-14.57853743 10.41324101-34.57196019 7.08100388-45.81826047-7.08100388L874.38078756 941.0255301c-14.16200779 6.66447425-29.15707487 11.66282994-44.15214191 14.16200781v34.57196018c0 17.07771529-14.57853743 31.23972305-32.48931199 31.23972308s-32.90584162-14.16200779-32.90584166-31.23972308v-34.57196018c-15.4115967-2.91570749-29.99013414-7.49753356-44.15214191-14.16200781l-21.65954132 28.32401559c-10.82977066 14.16200779-30.82319343 17.07771529-45.40173088 7.08100388-7.08100388-4.58182605-11.66282994-12.07935959-12.91241886-19.99342272-1.24958894-8.33059282 0.83305929-16.66118561 5.83141498-23.3256599l21.6595413-28.74054525c-10.82977066-10.41324101-19.99342274-22.49260061-27.90748591-35.82154909l-34.15543057 10.82977066c-17.07771529 5.41488532-35.40501948-3.74876676-41.23643445-19.99342278-5.41488532-16.24465601 3.33223712-33.32237125 19.16036349-38.73725659 0.41652964 0 0.83305929-0.41652964 1.66611858-0.41652963l34.57196018-10.82977068c-0.83305929-7.49753356-2.08264821-14.57853743-2.08264819-22.49260059 0-7.49753356 1.24958894-14.99506707 2.49917784-22.076071l-34.57196021-10.82977063c-17.07771529-5.41488532-26.24136737-23.32565988-20.82648204-39.5703159 5.41488532-16.66118561 23.74218953-25.40830806 41.23643446-20.40995238l34.98848981 11.24630031c7.49753356-12.91241886 16.24465601-25.40830806 27.07442666-36.23807879l-21.24301168-28.32401558c-9.99671138-13.32894853-7.9140632-32.48931198 5.41488534-42.48602338 0.41652964-0.41652964 0.83305929-0.83305929 1.66611857-1.24958892 14.57853743-9.99671138 34.57196019-7.08100388 45.81826051 7.08100393l21.24301168 28.32401555c14.16200779-6.66447425 29.15707487-11.66282994 44.15214189-14.57853742V582.81003895c0-17.07771529 14.57853743-31.23972305 32.48931205-31.23972307s32.90584162 14.16200779 32.9058416 31.23972307v34.5719602c15.4115967 2.91570749 29.99013414 7.9140632 44.15214192 14.57853743l21.65954134-28.32401559c10.82977066-14.16200779 30.82319343-17.07771529 45.40173086-7.08100386 14.16200779 9.16365209 17.49424491 28.32401557 8.33059282 42.06949369-0.41652964 0.41652964-0.83305929 0.83305929-0.83305929 1.24958893l-21.65954132 28.74054521c10.82977066 10.82977066 20.40995238 22.49260061 27.90748592 35.82154913l34.15543057-10.82977066c17.07771529-5.41488532 35.40501948 3.74876676 41.23643447 20.4099524 5.41488532 16.24465601-4.16529643 33.73890093-21.24301172 39.15378625z m-212.01358717-76.2249243c-62.89597578 0-114.1291216 49.15049762-114.12912162 109.54729555s51.23314581 109.54729557 114.12912162 109.54729557c62.89597578 0 114.1291216-49.15049762 114.12912158-109.54729557 0.41652964-60.39679794-50.81661621-109.54729557-114.12912158-109.54729555z m0 0" p-id="5218"></path><path d="M805.2368672 45.90333185h-78.72410212c0-22.90913024-21.65954132-39.15378623-44.15214195-39.15378623H19.66196448c-22.49260061 0-40.81990481 18.32730419-40.40337518 41.23643444V866.05019473s42.90255299 123.70930334 114.12912158 123.70930336h578.5596712c-46.65131978-20.40995238-85.38857638-55.81497187-109.96382518-100.38364344H100.46871481s-41.65296407-14.16200779-41.6529641-42.48602338l484.00744272-0.41652963 1.66611855 3.33223713c-8.33059282-24.57524883-12.91241886-49.9835569-12.91241885-75.80839468 0-62.47944614 24.57524883-122.04318478 68.72739074-166.19532667 34.57196019-34.15543056 79.14063178-57.06456082 127.04154046-65.39515362l-3.33223711 0.41652963 2.08264819-436.93959331h39.15378626l0.4165296 433.19082653c27.90748593 0 54.14885328 4.99835569 78.72410216 13.74547816V91.72159233c0.41652964 0-6.24794461-45.8182605-39.15378623-45.81826048zM133.37455644 516.16529643H53.81739502v-79.55716145h79.55716142V516.16529643z m0-148.28455217H53.81739502v-79.5571614h79.55716142v79.5571614z m0-141.20354828H53.81739502v-79.5571614h79.55716142v79.5571614z m516.49675467 289.48810045H191.2721765v-79.55716145h458.18260499V516.16529643z m0-148.28455217H191.2721765v-79.5571614h458.18260499v79.5571614z m0-141.20354828H191.2721765v-79.5571614h458.18260499v79.5571614z m0 0" p-id="5219"></path></svg>