<?xml version="1.0" standalone="no"?><!DOCTYPE svg PUBLIC "-//W3C//DTD SVG 1.1//EN" "http://www.w3.org/Graphics/SVG/1.1/DTD/svg11.dtd"><svg t="1572846048634" class="icon" viewBox="0 0 1024 1024" version="1.1" xmlns="http://www.w3.org/2000/svg" p-id="7354" xmlns:xlink="http://www.w3.org/1999/xlink" width="128" height="128"><defs><style type="text/css"></style></defs><path d="M951.52 192.8v-78.4h-106.24v168h106.24z m-106.24 156.8h106.24v168h-106.24z m-772.8-224v750.4A82.4 82.4 0 0 0 156.48 960h638.24v-50.4H156.48a28 28 0 1 1 0-56h638.24V64H134.08a85.76 85.76 0 0 0-61.6 61.6z m235.04 128.8H672v61.6H307.52z m0 168H672v61.6H307.52z m0 173.6H672v61.6H307.52zM184.48 254.4h61.6v61.6h-61.6z m0 168h61.6v61.6h-61.6z m0 173.6h61.6v61.6h-61.6z m660.8-5.6h106.24v173.6h-106.24z" p-id="7355"></path></svg>