<?xml version="1.0" standalone="no"?><!DOCTYPE svg PUBLIC "-//W3C//DTD SVG 1.1//EN" "http://www.w3.org/Graphics/SVG/1.1/DTD/svg11.dtd"><svg t="1572840935351" class="icon" viewBox="0 0 1024 1024" version="1.1" xmlns="http://www.w3.org/2000/svg" p-id="5596" xmlns:xlink="http://www.w3.org/1999/xlink" width="128" height="128"><defs><style type="text/css"></style></defs><path d="M538.5 902.4C374 902.4 233.4 800.1 176 655.8h49.2l-75.4-93.1-85.5 93.1h50.6c60 176.4 227.2 303.7 423.7 303.7 201.7 0 372.7-134.2 428.3-318h-60.1c-53.7 151.8-198.4 260.9-368.3 260.9zM538.5 121.7c168.9 0 313 107.8 367.3 258.3h-53.2l85.5 93.1 75.4-93.1h-47.7C909.4 197.5 739.2 64.6 538.5 64.6c-205.9 0-379.6 139.8-431.6 329.4h59.5c50.2-157.7 198-272.3 372.1-272.3z" p-id="5597"></path><path d="M752.8 346.9C407 453.2 548.9 701.7 548.9 701.7 597.8 594 634.7 568 634.7 568c-34.5 33.8-60.5 147.3-60.5 147.3 279.5-73.9 178.6-368.4 178.6-368.4z" p-id="5598"></path><path d="M481.9 657.6C561.3 466.6 350 396 350 396c-89.9 242.8 113.1 270.1 113.1 270.1-40-74.6-38.7-106.9-38.7-106.9 4.2 34.3 57.5 98.4 57.5 98.4z" p-id="5599"></path></svg>