<?xml version="1.0" standalone="no"?><!DOCTYPE svg PUBLIC "-//W3C//DTD SVG 1.1//EN" "http://www.w3.org/Graphics/SVG/1.1/DTD/svg11.dtd"><svg t="1572841225320" class="icon" viewBox="0 0 1024 1024" version="1.1" xmlns="http://www.w3.org/2000/svg" p-id="11136" xmlns:xlink="http://www.w3.org/1999/xlink" width="128" height="128"><defs><style type="text/css"></style></defs><path d="M789.333333 485.973333a199.68 199.68 0 0 1 85.333334 20.053334l-3.84-38.4a120.746667 120.746667 0 0 0-14.08-58.453334l27.733333-4.693333a20.48 20.48 0 0 0 21.333333-20.48v-17.066667a20.053333 20.053333 0 0 0-5.973333-14.08 22.186667 22.186667 0 0 0-14.933333-5.973333H810.666667a36.693333 36.693333 0 0 0-9.813334 2.56L768 252.16A96.853333 96.853333 0 0 0 665.173333 170.666667H347.733333a98.133333 98.133333 0 0 0-101.546666 81.493333L213.333333 349.866667a28.586667 28.586667 0 0 0-10.24-2.986667H128a20.48 20.48 0 0 0-14.506667 5.973333 22.613333 22.613333 0 0 0-6.4 14.08V384a20.48 20.48 0 0 0 20.906667 20.48l28.586667 4.693333A120.32 120.32 0 0 0 141.653333 469.333333l-10.666666 115.2a82.773333 82.773333 0 0 0 0 10.24 32.853333 32.853333 0 0 0 0 6.4v138.666667a36.266667 36.266667 0 0 0 37.12 35.413333h56.746666a36.266667 36.266667 0 0 0 37.546667-35.413333v-42.666667h327.253333a37.546667 37.546667 0 0 1 0-6.826666 200.96 200.96 0 0 1 199.68-204.373334zM271.36 326.4l24.746667-63.146667c2.56-12.8 8.106667-15.36 16.213333-25.173333h387.84c8.533333 10.24 13.653333 12.8 15.786667 24.746667l25.173333 64.853333 9.386667 35.413333a61.866667 61.866667 0 0 1-61.44 46.08H323.413333a61.866667 61.866667 0 0 1-61.44-47.36z m17.493333 301.226667a54.186667 54.186667 0 1 1 56.32-54.186667 55.466667 55.466667 0 0 1-56.32 54.186667z m139.946667-23.893334a17.066667 17.066667 0 0 1-17.066667-16.213333v-45.226667a16.64 16.64 0 0 1 17.066667-15.786666h157.866667a16.213333 16.213333 0 0 1 17.066666 15.786666v45.226667a16.64 16.64 0 0 1-17.066666 16.213333z" p-id="11137"></path><path d="M795.306667 526.506667a160.426667 160.426667 0 1 0 160.426666 160.426666 160.426667 160.426667 0 0 0-160.426666-160.426666z m113.493333 178.773333l-26.453333 5.546667a8.533333 8.533333 0 0 0-6.4 5.546666l-2.56 6.826667a8.533333 8.533333 0 0 0 0 8.533333l14.933333 22.186667a8.533333 8.533333 0 0 1 0 10.666667l-14.08 14.506666a8.533333 8.533333 0 0 1-11.093333 0l-22.186667-14.506666a8.533333 8.533333 0 0 0-8.533333 0l-6.826667 2.986666a7.68 7.68 0 0 0-5.546667 6.4l-5.546666 26.453334a8.106667 8.106667 0 0 1-8.106667 6.826666h-21.333333a8.96 8.96 0 0 1-8.533334-6.826666l-5.12-26.453334A7.68 7.68 0 0 0 768 768l-6.826667-2.986667a8.533333 8.533333 0 0 0-8.533333 0l-22.186667 14.506667a8.533333 8.533333 0 0 1-11.093333 0l-14.08-14.506667a8.533333 8.533333 0 0 1 0-10.666666l14.933333-22.186667a8.533333 8.533333 0 0 0 0-8.533333l-2.56-6.826667a8.533333 8.533333 0 0 0-6.4-5.546667l-28.586666-5.973333a8.533333 8.533333 0 0 1-6.826667-8.106667v-20.48a8.533333 8.533333 0 0 1 6.826667-8.533333l26.453333-5.12a8.96 8.96 0 0 0 6.4-5.546667l2.56-6.826666a8.533333 8.533333 0 0 0 0-8.533334l-14.933333-22.186666a8.96 8.96 0 0 1 0-11.093334l14.08-14.08a8.96 8.96 0 0 1 11.093333 0l22.186667 14.933334a8.533333 8.533333 0 0 0 8.533333 0l8.96-3.84a7.68 7.68 0 0 0 5.546667-6.4l5.12-26.026667a8.96 8.96 0 0 1 8.533333-6.826667h20.48a8.96 8.96 0 0 1 8.533333 6.826667l5.12 26.026667a7.68 7.68 0 0 0 5.546667 6.4l6.826667 2.986666a8.533333 8.533333 0 0 0 8.533333 0l22.186667-14.933333a8.96 8.96 0 0 1 11.093333 0l14.08 14.08a8.96 8.96 0 0 1 0 11.093333l-14.933333 22.186667a8.533333 8.533333 0 0 0 0 8.533333 32.853333 32.853333 0 0 1 2.986666 6.826667 8.533333 8.533333 0 0 0 6.4 5.546667l26.453334 5.12a8.533333 8.533333 0 0 1 6.826666 8.533333v20.48a8.533333 8.533333 0 0 1-8.533333 8.96z" p-id="11138"></path><path d="M795.306667 635.306667a52.053333 52.053333 0 0 0-50.773334 42.666666 51.626667 51.626667 0 1 0 50.773334-42.666666z" p-id="11139"></path></svg>