<?xml version="1.0" standalone="no"?><!DOCTYPE svg PUBLIC "-//W3C//DTD SVG 1.1//EN" "http://www.w3.org/Graphics/SVG/1.1/DTD/svg11.dtd"><svg t="1572841056672" class="icon" viewBox="0 0 1041 1024" version="1.1" xmlns="http://www.w3.org/2000/svg" p-id="7678" xmlns:xlink="http://www.w3.org/1999/xlink" width="130.125" height="128"><defs><style type="text/css"></style></defs><path d="M19.956517 923.308717l1003.832681 0 0-34.051537L19.956517 889.25718 19.956517 923.308717zM955.574584 853.995071 955.574584 370.664018 513.889023 118.377084 70.776973 370.664018l0 483.331054 68.061119 0L138.838092 404.694065l748.675374 0 0 449.301006L955.574584 853.995071zM853.479325 614.957907l-44.690852 0 0 21.020756-12.671601 0 0-21.020756-44.687782 0 0 101.966323 102.049211 0L853.478302 614.957907zM734.50156 733.697241l0 119.219265 118.751614 0L853.253174 733.697241l-51.90516 0 0 24.89704-14.939247 0 0-24.89704L734.50156 733.697241zM290.915719 702.588733l-15.005762 0 0-24.886807-52.156894 0 0 119.219265 119.320573 0L343.073636 677.701926l-52.156894 0L290.916742 702.588733zM513.889023 49.253774 2.711761 341.199962l0 45.088918L513.889023 94.351901l511.191588 291.935955 0-45.086871L513.889023 49.253774zM462.313368 852.930833l-0.184195-402.949328-17.015535 0 0 17.015535L189.883675 466.99704l0.534166-17.183358-17.367553 0 0 403.118174 17.35732 0-0.523933-16.974603 255.229962 0-0.163729 16.974603L462.313368 852.931856zM189.883675 484.012575l255.229962 0 0 150.449547L189.883675 634.462123l0.002047-147.095149L189.883675 484.012575zM189.883675 818.940694l0-167.464059 255.229962 0 0 167.464059L189.883675 818.940694zM427.840228 509.280052l-51.927673 0 0 24.894993-14.933107 0 0-24.894993-51.930743 0 0 102.202707 119.321596 0L427.840228 509.280052zM598.291318 751.080144l0 101.966323 102.049211 0 0-101.966323-44.690852 0 0 21.020756-12.671601 0 0-21.020756L598.291318 751.080144z" p-id="7679"></path></svg>