<?xml version="1.0" standalone="no"?><!DOCTYPE svg PUBLIC "-//W3C//DTD SVG 1.1//EN" "http://www.w3.org/Graphics/SVG/1.1/DTD/svg11.dtd"><svg t="1572841262214" class="icon" viewBox="0 0 1024 1024" version="1.1" xmlns="http://www.w3.org/2000/svg" p-id="11887" xmlns:xlink="http://www.w3.org/1999/xlink" width="128" height="128"><defs><style type="text/css"></style></defs><path d="M647.168 896.585143l-5.193143-2.194286-7.314286-4.242286a91.648 91.648 0 0 1-55.881142-83.821714v-36.864c0-26.038857 10.605714-49.371429 27.794285-65.901714 0 0 11.629714-12.288 16.091429-15.725714 6.582857-4.608 24.722286-8.484571 24.722286-8.484572a90.624 90.624 0 0 1 33.133714-96.694857A318.902857 318.902857 0 0 0 510.976 533.942857H320.658286A321.462857 321.462857 0 0 0 0 855.259429v19.163428c0 92.672 141.604571 92.672 320.658286 92.672h190.317714c51.273143 0 100.644571 0 144.457143-2.413714a91.501714 91.501714 0 0 1-8.265143-68.096zM406.381714 509.366857a254.537143 254.537143 0 0 0 253.805715-254.683428A254.537143 254.537143 0 0 0 406.454857 0a254.756571 254.756571 0 0 0 0 509.366857z m590.994286 229.741714a48.859429 48.859429 0 0 1-45.933714-48.347428c0-7.899429 1.828571-15.140571 5.412571-21.796572a30.354286 30.354286 0 0 0-12.068571-39.350857l-16.310857-9.654857-15.725715-9.069714a30.354286 30.354286 0 0 0-39.862857 9.069714 47.762286 47.762286 0 0 1-40.448 21.796572 47.689143 47.689143 0 0 1-40.448-21.796572 30.354286 30.354286 0 0 0-39.936-9.069714l-16.822857 9.069714-15.725714 9.069714a30.281143 30.281143 0 0 0-12.068572 39.350858c3.657143 6.582857 5.412571 13.897143 5.412572 21.723428a48.420571 48.420571 0 0 1-45.933715 48.420572v0.585142a29.842286 29.842286 0 0 0-27.794285 30.208v36.937143a30.72 30.72 0 0 0 27.794285 30.208l0.658286 0.658286a47.908571 47.908571 0 0 1 39.862857 70.217143 30.281143 30.281143 0 0 0 12.068572 39.277714l31.963428 18.724572c13.897143 7.826286 31.451429 3.657143 39.936-9.069715a47.689143 47.689143 0 0 1 40.448-21.796571c16.822857 0 31.963429 9.069714 40.448 21.796571 9.069714 12.653714 25.965714 17.554286 39.862857 9.069715l32.036572-18.724572a30.208 30.208 0 0 0 12.068571-38.765714s0-0.585143-0.658285-0.585143c-0.585143-0.585143-0.585143-1.243429-1.170286-1.828571l-0.585143-0.585143a48.420571 48.420571 0 0 1 41.691429-67.145143l0.512-0.585143a29.915429 29.915429 0 0 0 27.794285-30.281143v-38.034286c1.243429-15.798857-11.483429-28.525714-26.550857-29.696z m-94.866286 74.386286a79.36 79.36 0 0 1-13.312 23.04 76.068571 76.068571 0 0 1-57.344 26.550857 75.849143 75.849143 0 0 1-75.483428-74.971428c0-9.069714 1.755429-17.554286 4.169143-25.453715a67.730286 67.730286 0 0 1 13.312-22.966857 72.630857 72.630857 0 0 1 44.690285-25.380571 90.697143 90.697143 0 0 1 13.238857-1.170286c4.900571 0 9.069714 0.585143 13.312 1.170286 17.554286 2.998857 33.206857 12.653714 44.763429 25.380571 5.339429 6.656 10.24 14.555429 13.165714 22.966857a69.632 69.632 0 0 1 4.315429 25.453715c0 9.069714-1.828571 17.554286-4.827429 25.380571z" p-id="11888"></path></svg>