<?xml version="1.0" standalone="no"?><!DOCTYPE svg PUBLIC "-//W3C//DTD SVG 1.1//EN"
  "http://www.w3.org/Graphics/SVG/1.1/DTD/svg11.dtd">
<svg t="1572845204081" class="icon" viewBox="0 0 1024 1024" version="1.1"
  xmlns="http://www.w3.org/2000/svg" p-id="20669" xmlns:xlink="http://www.w3.org/1999/xlink"
  width="128" height="128">
  <defs>
    <style type="text/css"></style>
  </defs>
  <path
    d="M493.568 554.496l-224.768-112.64c-5.12-2.56-10.752-2.56-15.872 0l-240.64 112.64c-6.656 2.56-11.264 9.216-11.264 16.384v307.2c0 6.144 3.072 12.288 9.216 15.36L243.2 1018.88H252.928l232.96-125.44c6.144-3.072 9.216-9.216 9.216-15.36v-307.2c10.24-7.168 5.632-13.824-1.536-16.384z m-232.96-76.8l50.688 25.088-195.072 100.352-57.344-31.232 201.728-94.208zM235.52 974.848L36.864 867.84v-266.752l60.416 32.768v58.88l45.056 20.992v-55.808l92.672 50.176v266.752h0.512z m17.92-297.472L163.84 628.736 360.96 527.36l88.064 44.032-195.584 105.984z m757.76-122.88l-224.768-112.64c-5.12-2.56-10.752-2.56-15.872 0l-240.64 112.64c-6.656 2.56-11.264 9.216-11.264 16.384v306.688c0 6.144 3.072 12.288 9.216 15.872l232.96 125.44H770.56l236.544-125.44c6.144-3.072 9.216-9.216 9.216-15.36v-307.2c6.656-7.168 2.048-13.824-5.12-16.384z m-232.96-76.8l50.688 25.088-195.072 100.352-57.344-31.232L778.24 477.696z m-25.6 497.152l-198.144-107.008v-266.752l60.416 32.768v58.88l45.056 20.992v-55.808l92.672 50.176v266.752z m17.92-297.472l-89.6-48.128 197.12-101.376 88.064 44.032-195.584 105.472z m-12.288-563.2L533.504 1.536c-5.12-2.56-10.752-2.56-15.872 0l-240.64 112.64c-6.656 2.56-11.264 9.216-11.264 16.384v307.2c0 6.144 3.072 12.288 9.216 15.36L507.904 578.56H517.632l232.96-125.44c6.144-3.072 9.216-9.216 9.216-15.36v-307.2c9.728-7.168 4.608-13.824-1.536-16.384zM537.6 43.52l50.688 25.088-195.072 100.864L335.872 138.24 537.6 43.52z m-37.888 497.152L301.568 433.664v-266.24L361.984 199.68v58.88l45.056 20.992V223.744l92.672 50.176v266.752z m17.92-303.616l-89.6-48.128L624.64 87.552l88.064 44.032-195.072 105.472z"
    p-id="20670"></path>
</svg>
