<?xml version="1.0" standalone="no"?><!DOCTYPE svg PUBLIC "-//W3C//DTD SVG 1.1//EN" "http://www.w3.org/Graphics/SVG/1.1/DTD/svg11.dtd"><svg t="1576736242198" class="icon" viewBox="0 0 1024 1024" version="1.1" xmlns="http://www.w3.org/2000/svg" p-id="887" width="64" height="64" xmlns:xlink="http://www.w3.org/1999/xlink"><defs><style type="text/css"></style></defs><path d="M137.35253333 412.60373333h152.91733334C313.7536 363.99786667 348.16 321.39946667 391.30453333 288.08533333c15.83786667-12.01493333 32.22186667-22.9376 49.69813334-32.22186666V107.86133333c0-30.03733333-24.02986667-54.61333333-54.0672-54.61333333H137.35253333c-30.03733333 0-54.0672 24.576-54.0672 54.61333333v250.6752c0 29.4912 24.02986667 54.0672 54.0672 54.0672zM838.58773333 304.46933333V107.86133333c0-30.03733333-24.02986667-54.61333333-54.0672-54.61333333h-249.58293333c-30.03733333 0-54.0672 24.576-54.0672 54.61333333v129.97973334c39.86773333-15.29173333 81.92-22.9376 124.5184-22.9376 87.38133333 0 169.84746667 31.67573333 233.19893333 89.56586666zM258.048 522.37653333c2.73066667-24.02986667 8.192-46.96746667 16.384-69.90506666h-136.53333333c-30.03733333 0-54.0672 24.576-54.0672 54.61333333V757.76c0 30.03733333 24.02986667 54.61333333 54.0672 54.61333333H353.62133333c-8.73813333-9.28426667-17.47626667-19.11466667-25.12213333-29.4912a352.20138667 352.20138667 0 0 1-70.4512-260.5056z m651.53706667 330.9568l-73.18186667-80.2816c-3.2768-4.9152-4.9152-7.09973333-8.192-13.65333333l10.92266667-15.29173333c77.55093333-103.2192 80.2816-249.0368-1.6384-356.07893334-83.5584-109.22666667-232.10666667-144.72533333-356.07893334-85.74293333-14.19946667 6.5536-27.30666667 14.19946667-39.86773333 22.9376-4.9152 2.73066667-9.28426667 6.00746667-13.65333333 9.8304-27.8528 21.2992-51.33653333 47.5136-69.90506667 77.55093333-64.44373333 103.76533333-57.344 237.02186667 16.93013333 333.68746667 14.19946667 19.11466667 31.1296 36.0448 49.69813334 50.7904 95.0272 75.91253333 227.7376 84.65066667 332.04906666 21.2992l81.37386667 90.112c15.29173333 19.6608 43.69066667 24.02986667 63.35146667 8.73813333l0.54613333-0.54613333c19.11466667-14.7456 22.9376-43.14453333 7.64586667-63.35146667z m-166.57066667-107.04213333c-76.45866667 58.9824-181.8624 62.80533333-262.144 8.73813333-14.7456-9.8304-27.8528-21.2992-39.86773333-34.4064-66.08213333-71.54346667-79.18933333-178.03946667-31.67573334-263.23626666 14.7456-26.76053333 34.95253333-50.24426667 58.9824-68.8128 91.20426667-70.99733333 221.73013333-60.6208 300.91946667 24.02986666 12.01493333 13.1072 22.9376 27.30666667 31.1296 42.5984 56.25173333 98.304 31.67573333 222.27626667-57.344 291.08906667z" p-id="888" fill=""></path></svg>
