<?xml version="1.0" standalone="no"?><!DOCTYPE svg PUBLIC "-//W3C//DTD SVG 1.1//EN" "http://www.w3.org/Graphics/SVG/1.1/DTD/svg11.dtd"><svg t="1560339104537" class="icon" style="" viewBox="0 0 1024 1024" version="1.1" xmlns="http://www.w3.org/2000/svg" p-id="19851" xmlns:xlink="http://www.w3.org/1999/xlink" width="128" height="128"><defs><style type="text/css"></style></defs><path d="M840.3 195.4H724.6c-15.6-71.9-79.8-126-156.3-126h-344c-88.2 0-160 71.8-160 160v605.8c0 65.8 53.6 119.4 119.4 119.4h656.6c65.8 0 119.4-53.6 119.4-119.4V314.8c0-65.9-53.5-119.4-119.4-119.4z m-683.8-33.8c18.2-18.2 42.3-28.2 67.8-28.2h344c25.5 0 49.6 10 67.8 28.2 9.8 9.8 17.2 21.3 21.9 33.7H183.7c-19 0-37 4.5-52.9 12.4 4-17.2 12.8-33.1 25.7-46.1z m683.8 733.3H183.7c-32.9 0-59.7-26.8-59.7-59.7V314.8c0-32.9 26.8-59.7 59.7-59.7h656.6c32.9 0 59.7 26.8 59.7 59.7v97.5H560.6c-35.3 0-64 28.7-64 64v186c0 35.3 28.7 64 64 64H900v109c0 32.8-26.8 59.6-59.7 59.6zM900 476.2v186H592.6c-17.6 0-32-14.4-32-32v-122c0-17.6 14.4-32 32-32H900z" fill="" p-id="19852"></path><path d="M659 569.2m-48 0a48 48 0 1 0 96 0 48 48 0 1 0-96 0Z" fill="" p-id="19853"></path></svg>