<?xml version="1.0" standalone="no"?><!DOCTYPE svg PUBLIC "-//W3C//DTD SVG 1.1//EN"
  "http://www.w3.org/Graphics/SVG/1.1/DTD/svg11.dtd">
<svg t="1572845064024" class="icon" viewBox="0 0 1024 1024" version="1.1"
  xmlns="http://www.w3.org/2000/svg" p-id="19449" xmlns:xlink="http://www.w3.org/1999/xlink"
  width="128" height="128">
  <defs>
    <style type="text/css"></style>
  </defs>
  <path
    d="M512 78.769231A393.846154 393.846154 0 1 1 118.153846 472.615385 393.846154 393.846154 0 0 1 512 78.769231z"
    p-id="19450" data-spm-anchor-id="a313x.7781069.0.i19" class="selected"></path>
  <path
    d="M275.692308 275.692308v66.599384h145.723077V275.692308z m133.198769 54.350769h-9.137231V287.507692h9.137231z m287.507692-47.261539v145.723077h66.599385V282.663385z m54.547693 21.661539h-42.614154V295.384615h42.614154z m-54.508308-1.496615h-100.076308a134.892308 134.892308 0 0 0-93.577846 37.179076 128.118154 128.118154 0 0 0-40.448 90.899693v130.914461a29.735385 29.735385 0 0 1-32.334769 30.365539 27.884308 27.884308 0 0 1-28.002462-30.365539v-220.553846H297.078154v219.766154a128.275692 128.275692 0 0 0 39.384615 92.711385 134.813538 134.813538 0 0 0 94.523077 38.084923 138.200615 138.200615 0 0 0 95.468308-37.809231 126.976 126.976 0 0 0 40.96-93.065846v-109.961846a55.138462 55.138462 0 0 1 10.555077-34.028308 24.182154 24.182154 0 0 1 18.510769-10.279385h100.233846z m-5.001846 23.867076a653.233231 653.233231 0 0 0-102.4 0.669539 113.860923 113.860923 0 0 0-106.338462 121.383385V563.2a63.212308 63.212308 0 0 1-18.786461 42.338462 46.749538 46.749538 0 0 1-31.980308 12.642461h-3.938462a45.528615 45.528615 0 0 1-41.314461-31.310769 76.524308 76.524308 0 0 1-4.371692-27.608616V350.523077h9.452307v209.053538a67.347692 67.347692 0 0 0 3.938462 23.867077 36.273231 36.273231 0 0 0 33.122461 24.969846c19.416615 1.536 41.511385-12.091077 44.504616-46.00123v-73.452308-40.408615a160.216615 160.216615 0 0 1 24.024615-80.817231 114.924308 114.924308 0 0 1 91.096615-49.782154 653.075692 653.075692 0 0 1 103.936-0.590769z"
    p-id="19451" data-spm-anchor-id="a313x.7781069.0.i20" class="" fill="#ffffff"></path>
</svg>
