<?xml version="1.0" standalone="no"?><!DOCTYPE svg PUBLIC "-//W3C//DTD SVG 1.1//EN"
  "http://www.w3.org/Graphics/SVG/1.1/DTD/svg11.dtd">
<svg t="1572845254598" class="icon" viewBox="0 0 1024 1024" version="1.1"
  xmlns="http://www.w3.org/2000/svg" p-id="21411" xmlns:xlink="http://www.w3.org/1999/xlink"
  width="128" height="128">
  <defs>
    <style type="text/css"></style>
  </defs>
  <path
    d="M784.9984 935.936a40.96 40.96 0 0 1-40.96-40.96v-175.5136a41.984 41.984 0 0 1 40.96-40.96h56.7296V542.72H182.272v135.168h56.7296a42.1888 42.1888 0 0 1 40.96 40.96v174.8992a41.984 41.984 0 0 1-40.96 40.96H64.1024a40.96 40.96 0 0 1-40.96-40.96v-174.2848a41.984 41.984 0 0 1 40.96-40.96H120.832V512a30.72 30.72 0 0 1 30.72-30.72h329.728v-135.168H227.9424a40.96 40.96 0 0 1-40.96-40.96V129.6384a41.984 41.984 0 0 1 40.96-40.96h568.1152a42.1888 42.1888 0 0 1 40.96 40.96v174.8992a41.984 41.984 0 0 1-40.96 40.96H542.72v135.168h329.728A30.72 30.72 0 0 1 903.168 512v165.888h56.7296a42.1888 42.1888 0 0 1 40.96 40.96v174.8992a41.984 41.984 0 0 1-40.96 40.96z m20.48-61.44h135.168v-135.168H804.864z m-720.896 0h135.168v-135.168H83.968z m163.84-589.824H776.192V149.504H247.808z m176.7424 651.264a41.984 41.984 0 0 1-40.96-40.96v-175.5136a42.1888 42.1888 0 0 1 40.96-40.96h174.8992a42.1888 42.1888 0 0 1 40.96 40.96v174.8992a41.984 41.984 0 0 1-40.96 40.96z m20.48-61.44h135.168v-135.168H444.416z"
    p-id="21412"></path>
</svg>
