<?xml version="1.0" standalone="no"?><!DOCTYPE svg PUBLIC "-//W3C//DTD SVG 1.1//EN" "http://www.w3.org/Graphics/SVG/1.1/DTD/svg11.dtd"><svg t="1572844785573" class="icon" viewBox="0 0 1024 1024" version="1.1" xmlns="http://www.w3.org/2000/svg" p-id="15649" xmlns:xlink="http://www.w3.org/1999/xlink" width="128" height="128"><defs><style type="text/css"></style></defs><path d="M601.579 357.98l-47.087-10.342c-3.859-11.577-8.177-23.005-14.199-33.804l25.777-42.608c9.263-15.278 14.201-37.665 0-52.015l-25.777-25.786c-7.101-7.099-16.363-9.874-25.777-9.874-9.881 0-19.607 3.242-27.482 8.177l-41.673 26.246c-10.96-5.404-21.767-10.34-33.345-14.199l-10.342-47.546c-3.242-17.441-18.678-36.586-38.749-36.586h-36.58c-20.38 0-32.886 19.145-36.586 36.586l-11.577 47.078c-12.504 3.859-24.08 8.804-35.5 15.286l-43.228-26.705c-7.56-4.943-17.441-8.186-27.473-8.186-9.263 0-19.145 2.782-25.777 9.881l-25.787 25.779c-14.199 14.199-9.254 36.586 0 52.023l26.705 44.922c-4.936 9.874-9.256 20.834-13.274 31.641l-47.076 10.34c-17.441 3.239-36.586 18.676-36.586 38.749v36.578c0 20.38 19.145 32.886 36.586 36.586l47.546 12.044c3.239 9.874 7.56 19.596 12.037 29.477l-26.705 44.922c-9.263 15.278-14.199 37.665 0 52.023l25.777 25.779c7.101 7.099 16.364 9.881 25.779 9.881 9.881 0 19.605-3.25 27.48-8.186l42.601-26.705c11.577 6.022 23.464 10.96 36.127 15.286l11.577 47.077c3.859 17.441 16.355 36.586 36.578 36.586h36.745c20.373 0 35.5-19.146 38.742-36.586l10.34-47.544c11.577-3.859 22.387-8.179 33.345-14.201l41.675 26.246c7.568 4.936 17.449 8.177 27.48 8.177 9.263 0 19.137-3.242 25.779-9.881l25.777-25.777c14.199-14.201 9.263-36.586 0-52.023l-25.777-42.292c4.936-9.881 9.262-20.841 13.274-31.65l47.544-12.037c17.441-3.859 36.586-16.363 36.586-36.586v-36.586c1.236-21.756-17.909-37.042-35.5-39.665zM345.173 502.311c-48.773 0-88.451-39.976-88.451-88.451 0-48.781 39.986-88.449 88.451-88.449 48.781 0 89.227 39.976 89.227 88.449 0 48.475-39.987 88.451-89.227 88.451z" p-id="15650"></path><path d="M945.19 640.005l-34.574-7.56c-2.782-8.804-6.022-16.982-10.348-24.55l18.676-31.182c7.109-10.96 10.35-27.942 0-38.283l-19.137-19.137c-4.936-4.943-12.045-7.101-19.146-7.101-7.099 0-14.658 2.158-20.372 6.017l-30.564 18.835c-7.568-4.477-16.363-7.568-24.542-10.34l-7.568-35.041c-2.163-12.505-13.74-26.705-28.4-26.705H742.51c-14.669 0-24.082 14.199-26.705 26.705L707 526.236c-9.254 2.78-18.058 6.64-26.236 10.958l-31.182-19.605c-5.404-3.859-12.506-6.015-20.382-6.015-7.101 0-13.733 2.156-19.137 7.101l-19.146 19.137c-10.34 10.34-7.099 26.705 0 38.283l19.605 32.886c-3.859 7.56-7.099 15.278-9.254 22.996l-34.581 7.566c-12.505 2.158-26.705 13.735-26.705 28.401v26.705c0 14.669 14.199 24.08 26.705 26.705l35.041 8.795c2.78 7.568 5.404 14.669 8.795 21.308l-19.605 32.878c-7.099 10.96-10.34 27.942 0 38.283l19.146 19.137c4.938 4.945 12.037 7.109 19.137 7.109 7.109 0 14.669-2.163 20.382-6.022l31.182-19.605c8.177 4.477 17.441 8.177 26.236 10.958l8.804 34.574c2.773 12.506 12.037 26.705 26.705 26.705h26.705c14.658 0 26.236-14.199 28.4-26.705l7.568-35.04c8.179-2.773 16.364-6.015 24.082-10.34l30.564 19.145c5.395 3.859 12.496 6.022 20.372 6.022 7.101 0 14.201-2.163 19.137-7.109l19.145-19.137c10.34-10.34 7.101-26.705 0-38.283l-18.678-31.182c3.859-7.568 7.101-15.286 9.881-23.005l35.042-8.795c12.496-2.782 26.703-12.039 26.703-26.705v-26.705c0.463-14.668-13.277-25.468-26.241-27.63z m-188.788 106.05c-36.119 0-64.987-28.868-64.987-64.987 0-36.127 29.488-64.987 64.987-64.987s64.987 28.86 64.987 64.987c0.768 35.499-28.868 64.987-64.987 64.987z" p-id="15651"></path></svg>