<?xml version="1.0" standalone="no"?><!DOCTYPE svg PUBLIC "-//W3C//DTD SVG 1.1//EN" "http://www.w3.org/Graphics/SVG/1.1/DTD/svg11.dtd"><svg t="1572845480488" class="icon" viewBox="0 0 1024 1024" version="1.1" xmlns="http://www.w3.org/2000/svg" p-id="2899" xmlns:xlink="http://www.w3.org/1999/xlink" width="128" height="128"><defs><style type="text/css"></style></defs><path d="M1016.9 464l-43.4 43.4-87.2-87.4 43.3-43.4c14.7-14.7 29.4 0 29.4 0l57.9 57.9c0 0.1 14.8 14.8 0 29.5zM502.2 892l106.2-18.7-87.8-87.8zM742.9 177.9C742.9 119 695 71.1 636 71.1h-24.3v75.1H636c17.5 0 31.7 14.2 31.7 31.7v387.4l75.1-75.2V177.9zM209.3 198h324.9c20.5 0 37.2-16.7 37.2-37.2V52.7c0-20.5-16.7-37.2-37.2-37.2H209.3c-20.5 0-37.2 16.7-37.2 37.2v108.1c0 20.5 16.6 37.2 37.2 37.2z m20.2-125.1h284.4v67.6H229.5V72.9zM170.2 433.5h253.4c21.4 0 38.9-17.5 38.9-38.9s-17.5-38.9-38.9-38.9H170.2c-21.4 0-38.9 17.5-38.9 38.9s17.5 38.9 38.9 38.9z m362.1 87.6l-361.9-1.7c-21.4-0.1-39 17.3-39.1 38.7-0.1 21.4 17.4 39 38.8 39.1l361.9 1.7c21.4 0.1 39-17.3 39.1-38.7 0-21.4-17.4-39-38.8-39.1z m-47.1 164.4L170.4 684c-21.4-0.1-39 17.3-39.1 38.7-0.1 21.4 17.4 39 38.8 39.1l300 1.4 1.7 0.1 13.4-77.8z" p-id="2900"></path><path d="M681.6 873.1l-13.7 13.8v14.9c0 5.3-1.7 10.1-4 14.6-5.3 10.1-15.6 17.2-27.7 17.2H107.4c-17.5 0-31.7-14.2-31.7-31.7v-724c0-17.5 14.2-31.7 31.7-31.7h24.3V71.1h-24.3C48.4 71.1 0.5 119 0.5 177.9v723.8c0 58.3 46.9 105.6 104.9 106.6 0 0.1 0 0.1-0.1 0.2H638c0-0.1 0-0.1-0.1-0.2 58-1.1 104.9-48.4 104.9-106.6v-90.1l-61.2 61.5z" p-id="2901"></path><path d="M870.5 435.8L534.2 772.5l87.3 87.3 336.3-336.6-87.3-87.4zM579 783.1c-3.5 3.5-9.3 3.5-12.8 0s-3.5-9.3 0-12.8l302.1-302.5c3.5-3.5 9.3-3.5 12.8 0s3.5 9.3 0 12.8L579 783.1z" p-id="2902"></path></svg>