<?xml version="1.0" standalone="no"?><!DOCTYPE svg PUBLIC "-//W3C//DTD SVG 1.1//EN" "http://www.w3.org/Graphics/SVG/1.1/DTD/svg11.dtd"><svg t="1582798673230" class="icon" viewBox="0 0 1171 1024" version="1.1" xmlns="http://www.w3.org/2000/svg" p-id="2424" xmlns:xlink="http://www.w3.org/1999/xlink" width="73.1875" height="64"><defs><style type="text/css"></style></defs><path d="M573.889114 436.176447c-119.88021 0-217.460138-97.579927-217.460138-217.460138S454.008903 1.295022 573.889114 1.295022s217.486038 97.554027 217.486038 217.421287-97.502226 217.460138-217.486038 217.460138z" fill="" p-id="2425"></path><path d="M573.889114 51.658438A167.174423 167.174423 0 1 0 741.063537 218.858762 167.329826 167.329826 0 0 0 573.889114 51.658438z" fill="" p-id="2426"></path><path d="M573.889114 335.73452a117.018211 117.018211 0 1 1 117.005261-117.018211 117.095913 117.095913 0 0 1-117.005261 117.018211zM226.033185 1022.627276C101.361392 1022.627276 0 921.265884 0 796.594091s101.361392-226.033185 226.033185-226.033184 226.046135 101.361392 226.046135 226.033184-101.477944 226.033185-226.046135 226.033185z" fill="" p-id="2427"></path><path d="M226.033185 620.963173c-96.906516 0-175.630919 78.840955-175.630919 175.630918S129.243221 972.23796 226.033185 972.23796s175.643869-78.853905 175.643869-175.643869S322.823149 620.963173 226.033185 620.963173zM944.187778 1022.627276c-124.555241 0-226.046135-101.361392-226.046135-226.033185s101.309591-226.033185 226.046135-226.033184 226.020235 101.477944 226.020235 226.033184-101.413193 226.033185-226.020235 226.033185z" fill="" p-id="2428"></path><path d="M944.187778 620.963173c-96.906516 0-175.643869 78.840955-175.643869 175.630918s78.789154 175.643869 175.643869 175.643869 175.630919-78.853905 175.630919-175.643869S1041.029543 620.963173 944.187778 620.963173z" fill="" p-id="2429"></path><path d="M761.175233 811.978956H408.99393l-0.233104-17.715905a182.403885 182.403885 0 0 0-85.251316-152.216916l-15.307163-9.699717 169.647916-263.744233 15.087009 9.363011a173.908539 173.908539 0 0 0 186.72926-1.605827l15.229462-9.86807 168.093889 265.32416-15.423715 9.596115a182.041279 182.041279 0 0 0-86.274383 152.903278z m-317.448806-35.949818h282.599757a217.563739 217.563739 0 0 1 87.3104-154.949413L683.590449 415.702145a209.936058 209.936058 0 0 1-194.253339 1.476325L357.672197 621.869688a217.848644 217.848644 0 0 1 86.05423 154.107649z m0 0" fill="" p-id="2430"></path></svg>