<?xml version="1.0" standalone="no"?><!DOCTYPE svg PUBLIC "-//W3C//DTD SVG 1.1//EN" "http://www.w3.org/Graphics/SVG/1.1/DTD/svg11.dtd"><svg t="1582798628996" class="icon" viewBox="0 0 1024 1024" version="1.1" xmlns="http://www.w3.org/2000/svg" p-id="1022" width="64" height="64" xmlns:xlink="http://www.w3.org/1999/xlink"><defs><style type="text/css"></style></defs><path d="M905.24 805.389V412.807c0-67.429-88.623-122.084-197.963-122.084S509.29 345.378 509.29 412.807v392.582h395.95z m-432.308 0V257.201c0-67.42-88.623-122.075-197.963-122.075-109.334 0-197.975 54.655-197.975 122.075v548.188h395.938z" fill="#515151" p-id="1023"></path><path d="M607.695 520.359L588.4 539.671l86.241-0.006-19.287-19.306z" fill="#C5BFB4" p-id="1024"></path><path d="M655.354 520.359l19.288 19.305-86.241 0.006 19.294-19.312H593.28l-24.396 24.405 331.163 331.57 62.634-62.694-292.925-293.28h-14.402z m250.392 250.7l42.532 42.581-42.532 42.574v-85.155z m-10.198 86.347l-90.783-90.891 90.783-0.012v90.903z m-97.996-194.664L891 756.295l-93.448 0.012v-93.565z m-10.169 86.349l-90.806-90.906h90.806v90.906z m-98.008-194.664l93.436 93.553h-93.436v-93.553z m-10.186 86.346L588.4 549.876l90.788-0.006v90.903z" fill="#FFFFFF" p-id="1025"></path><path d="M167.42 361.653l-27.086 27.111 86.223-0.003-27.069-27.108z" fill="#C5BFB4" p-id="1026"></path><path d="M199.488 361.653l27.068 27.108-86.223 0.003 27.087-27.111h-14.415l-32.165 32.213L599.593 873.21l25.344 13.023 22.222-9.898 40.401-40.451-473.639-474.23h-14.433z m366.114 366.552l107.543 107.678-48.208 48.272-59.335-59.405v-96.545z m-10.174 86.346l-90.801-90.903h90.801v90.903z m-97.724-194.393l93.152 93.291h-93.177l0.025-93.291z m-10.193 86.343l-90.782-90.903h90.782v90.903z m-98.002-194.664l93.424 93.566h-93.424v-93.566z m-10.199 86.346l-90.776-90.896h90.776v90.896z m-97.995-194.664l93.436 93.559h-93.436v-93.559z m-10.169 86.346l-90.812-90.9 90.812-0.009v90.909z" fill="#FFFFFF" p-id="1027"></path><path d="M54.177 350.77h441.572v53.826H54.177z m432.308 148.248h441.571v53.814H486.485z" fill="#FFFFFF" p-id="1028"></path><path d="M989.333 851.987c0 20.619-16.715 37.333-37.334 37.333H70.667c-20.619 0-37.334-16.715-37.334-37.333 0-20.619 16.715-37.334 37.334-37.334H952c20.618 0 37.333 16.715 37.333 37.334z" fill="#515151" p-id="1029"></path></svg>