<?xml version="1.0" standalone="no"?><!DOCTYPE svg PUBLIC "-//W3C//DTD SVG 1.1//EN" "http://www.w3.org/Graphics/SVG/1.1/DTD/svg11.dtd"><svg t="1572844951415" class="icon" viewBox="0 0 1024 1024" version="1.1" xmlns="http://www.w3.org/2000/svg" p-id="16444" xmlns:xlink="http://www.w3.org/1999/xlink" width="128" height="128"><defs><style type="text/css"></style></defs><path d="M591.93512 598.899193a182.658665 182.658665 0 1 0-32.990144 31.001032l130.990278 130.990278a18.290124 18.290124 0 0 0 25.858451 0l6.161394-6.161395a18.290124 18.290124 0 0 0 0-25.858451zM535.706331 9.782548a192.701253 192.701253 0 0 0 18.823788 16.592102 722.872273 722.872273 0 0 0 355.371771 108.285296q7.228723 0.485149 18.629729 0.970298a18.726758 18.726758 0 0 1 17.513885 19.114878v390.448057a391.515385 391.515385 0 0 1-99.843701 257.129063 959.382496 959.382496 0 0 1-115.708078 127.788293 308.118242 308.118242 0 0 1-428.871872 13.535662 854.832849 854.832849 0 0 1-133.027904-149.911095A367.791591 367.791591 0 0 1 77.676993 550.384275V155.327301a18.726758 18.726758 0 0 1 17.513885-19.114878q13.341602-0.582179 21.686169-1.115843c132.30018-9.120805 276.53503-49.388186 355.032167-110.128863a174.265584 174.265584 0 0 0 16.543587-14.942594 33.135689 33.135689 0 0 1 47.205015-0.29109zM451.241859 610.154654a127.933838 127.933838 0 1 1 127.933838-127.933838A127.933838 127.933838 0 0 1 451.241859 610.154654z" p-id="16445"></path></svg>