<?xml version="1.0" standalone="no"?><!DOCTYPE svg PUBLIC "-//W3C//DTD SVG 1.1//EN" "http://www.w3.org/Graphics/SVG/1.1/DTD/svg11.dtd"><svg t="1557480110209" class="icon" style="" viewBox="0 0 1024 1024" version="1.1" xmlns="http://www.w3.org/2000/svg" p-id="2011" xmlns:xlink="http://www.w3.org/1999/xlink" width="128" height="128"><defs><style type="text/css"></style></defs><path d="M855.4496 562.8928l-22.1184-12.6976c1.7408-12.0832 3.072-24.8832 3.072-38.2976 0-13.5168-1.3312-26.624-3.072-38.5024l22.1184-12.6976c32.9728-18.8416 44.6464-61.1328 26.0096-94.3104l-53.248-94.8224c-18.7392-33.28-61.1328-45.2608-94.4128-26.5216l-21.7088 12.1856c-23.6544-18.7392-49.5616-33.9968-77.4144-45.4656V188.416c0-38.2976-31.1296-69.4272-69.4272-69.4272H458.8544c-38.2976 0-69.4272 31.1296-69.4272 69.4272v23.4496c-27.8528 11.4688-53.76 26.7264-77.4144 45.4656l-21.7088-12.1856c-33.3824-18.6368-75.6736-6.7584-94.4128 26.5216l-53.248 94.8224c-18.6368 33.1776-6.9632 75.4688 26.0096 94.3104l22.1184 12.6976c-1.7408 11.9808-3.072 25.088-3.072 38.5024 0 13.4144 1.3312 26.2144 3.072 38.2976l-22.1184 12.6976c-32.9728 18.8416-44.6464 61.1328-26.0096 94.3104l53.248 94.8224c18.7392 33.28 61.1328 45.2608 94.4128 26.5216l21.7088-12.1856c23.6544 18.7392 49.5616 33.9968 77.4144 45.4656V835.584c0 38.2976 31.1296 69.4272 69.4272 69.4272H565.248c38.2976 0 69.4272-31.1296 69.4272-69.4272v-23.7568c27.8528-11.4688 53.76-26.7264 77.4144-45.4656l21.7088 12.1856c10.6496 5.9392 22.3232 8.8064 33.792 8.8064 24.2688 0 47.9232-12.8 60.6208-35.4304l53.248-94.8224c18.6368-32.9728 6.9632-75.264-26.0096-94.208z m-342.016 134.0416c-101.9904 0-184.9344-82.944-184.9344-184.9344s82.944-184.9344 184.9344-184.9344c49.2544 0 95.744 19.2512 130.6624 54.272s54.272 81.408 54.272 130.6624c-0.1024 101.9904-83.0464 184.9344-184.9344 184.9344zM622.2848 816.64s0.1024 0 0 0c0.1024 0 0 0 0 0z" p-id="2012"></path></svg>