<?xml version="1.0" standalone="no"?><!DOCTYPE svg PUBLIC "-//W3C//DTD SVG 1.1//EN"
  "http://www.w3.org/Graphics/SVG/1.1/DTD/svg11.dtd">
<svg t="1572845007411" class="icon" viewBox="0 0 1024 1024" version="1.1"
  xmlns="http://www.w3.org/2000/svg" p-id="17784" xmlns:xlink="http://www.w3.org/1999/xlink"
  width="128" height="128">
  <defs>
    <style type="text/css"></style>
  </defs>
  <path
    d="M1024 512C1024 229.376 794.624 0 512 0S0 229.376 0 512s229.376 512 512 512 512-229.376 512-512zM296.96 457.216c-5.632 0-11.264-1.024-16.384-3.072h-0.512l-2.048-1.024c-12.288-5.632-21.504-15.872-26.624-28.16 0-0.512 0-0.512-0.512-1.024-4.096-11.264-4.096-24.064 0-35.328l0.512-2.048c2.56-6.144 6.144-11.776 10.24-16.896l169.472-181.76 3.072-3.072c9.216-8.192 21.504-12.288 33.792-11.776 12.288 0.512 24.576 6.144 32.768 15.36 18.432 20.48 18.432 51.712 0 72.192L413.184 353.792h314.368c25.6 2.048 46.08 22.528 48.128 48.128v3.584c0 27.136-20.992 49.664-48.128 51.712H296.96z m258.56 394.24c-12.288-0.512-24.576-6.144-32.768-15.36-18.432-20.48-18.432-51.712 0-72.192l87.552-93.696H295.936c-25.6-2.048-46.08-22.528-48.128-48.128v-3.584c0-27.136 20.992-49.664 48.128-51.712H727.04c5.632 0 11.264 1.024 16.384 2.56h0.512l2.048 1.024c12.288 5.632 21.504 15.872 26.624 28.16 0 0.512 0 0.512 0.512 1.024 4.096 11.264 4.096 24.064 0 35.328l-0.512 2.048c-2.56 6.144-6.144 11.776-10.24 16.896l-169.472 181.76-3.072 3.072a47.0528 47.0528 0 0 1-34.304 12.8z"
    p-id="17785"></path>
</svg>
