<?xml version="1.0" standalone="no"?><!DOCTYPE svg PUBLIC "-//W3C//DTD SVG 1.1//EN" "http://www.w3.org/Graphics/SVG/1.1/DTD/svg11.dtd"><svg t="1572846098905" class="icon" viewBox="0 0 1024 1024" version="1.1" xmlns="http://www.w3.org/2000/svg" p-id="9953" xmlns:xlink="http://www.w3.org/1999/xlink" width="128" height="128"><defs><style type="text/css"></style></defs><path d="M326.547102 160.495468C302.10162 95.606152 309.972809 53.754463 350.54463 22.013733c34.236474-26.749245 80.951662-29.372974 116.531997-6.463334 44.091458 28.413073 54.650371 70.264763 35.388355 140.721505C525.438616 170.09448 550.268058 181.805273 571.257896 198.315573c61.497666 48.379017 83.127438 116.340017 89.462785 191.340291 3.071684 36.540236 7.359242 73.080472 13.054655 109.300742 2.43175 15.742378-1.407855 25.085416-15.550398 31.612744-12.030761 5.43944-22.90964 14.398517-35.388355 17.406207C611.573744 550.727273 595.831365 552.071135 587.384235 546.247735 571.89783 535.496842 558.651195 536.072783 546.236474 546.439715c-15.038451 12.414721-31.996704 25.597363-40.315847 42.42763C499.905246 601.090086 501.249107 623.039825 508.80033 634.430652c10.686899 16.126339 11.838781 27.901126 3.00769 43.515518C504.896732 690.16891 500.54518 703.927493 493.121945 715.830267c-4.671519 7.487229-11.902774 15.614392-19.837957 18.622082-44.859379 16.89426-46.779182 18.622082-49.402911 67.641033-0.127987 2.751717-0.575941 5.63142-1.215875 10.878879-7.807196 0.639934-15.934359 1.599835-24.061522 1.599835-110.38863 0.127987-220.841253 0.127987-331.229882 0-40.315847 0-46.971162-12.350728-28.797034-47.995056 37.564131-73.720407 79.031859-145.968965 109.236748-222.697061 17.790168-45.179346 20.413897-97.333974 24.061522-146.800879C179.87421 289.3142 218.718209 203.435046 326.547102 160.495468L326.547102 160.495468zM447.686624 101.557539c-2.559736-20.09393-13.118649-33.852513-33.9805-34.236474C392.716287 66.937105 379.917605 79.991761 379.469651 100.661632 378.957704 121.587476 392.012359 134.322164 412.68223 134.834112 433.736061 135.410052 444.806921 122.355397 447.686624 101.557539z" p-id="9954"></path><path d="M944.659435 643.325735c-6.335347 10.366932-9.854985 16.766273-13.88657 22.71766-25.469377 38.652019-11.07086 75.384235 33.916506 81.143642 21.565779 2.751717 31.740731 12.606701 30.076902 32.380665-1.535842 19.262016 1.791815 41.723702-29.053007 46.267234-46.395221 6.719308-62.393573 43.387531-36.79621 82.359517 13.310629 20.349904 8.063169 34.748421-7.615216 49.274925-14.974458 14.014556-29.948915 23.10162-49.338918 6.399341-31.740731-27.389179-79.41582-14.718484-82.23153 33.340566-1.407855 24.253502-19.006042 28.029113-38.524032 26.493271-18.174128-1.343862-34.492447-3.263664-37.820104-28.477067-6.207361-46.971162-44.283439-64.505356-81.719583-37.372151-22.013733 15.870365-36.79621 9.279044-50.87476-7.615216-12.734688-15.358418-29.308981-28.861027-7.935183-52.730569 26.109311-29.372974 14.654491-62.969514-25.213403-73.144466-31.35677-7.999176-35.196375-26.749245-31.484757-52.602582 2.367756-16.254326 9.471024-26.365284 28.221093-29.628948 49.402911-8.63911 63.737435-40.379841 36.028289-81.335622-15.486405-23.10162-3.327657-37.116177 10.046965-52.026641C603.510574 594.434771 616.693216 591.939028 634.739357 604.801703c34.428454 24.381489 64.249382 13.502609 80.311728-26.365284 12.990662-32.380665 22.52568-38.971986 54.26641-30.076902 9.982972 2.81571 22.077726 14.142543 24.765449 23.933535 13.502609 48.507004 43.771491 61.753639 86.455095 36.668223 7.423235-4.351552 21.437792-6.975282 27.133205-3.00769C921.365834 615.80857 932.052733 630.207087 944.659435 643.325735L944.659435 643.325735zM753.319143 868.134579c39.99588-0.255974 76.920077-37.500137 77.560011-78.007965 0.639934-42.747597-35.836309-79.22384-78.775886-78.839879-42.61961 0.255974-79.479813 37.500137-78.647899 79.22384C674.415271 835.049987 708.907718 868.51854 753.319143 868.134579z" p-id="9955"></path><path d="M277.272178 887.396595c73.144466 0 139.12167 0.255974 205.098874-0.255974C499.009338 887.012635 502.976929 895.907719 504.000824 909.922275c2.559736 37.372151-24.445482 70.392749-66.745125 73.272453-23.357594 1.471848-49.466905-2.239769-70.712716-11.774787C330.25872 955.165615 302.037627 927.392476 277.272178 887.396595z" p-id="9956"></path></svg>