<?xml version="1.0" standalone="no"?><!DOCTYPE svg PUBLIC "-//W3C//DTD SVG 1.1//EN" "http://www.w3.org/Graphics/SVG/1.1/DTD/svg11.dtd"><svg t="1572845439479" class="icon" viewBox="0 0 1024 1024" version="1.1" xmlns="http://www.w3.org/2000/svg" p-id="2022" xmlns:xlink="http://www.w3.org/1999/xlink" width="128" height="128"><defs><style type="text/css"></style></defs><path d="M240.101 924.368h-72.178V590.1c0-189.69 153.739-343.538 343.538-343.538 189.773 0 343.51 153.876 343.51 343.538v334.267H240.13z m296.213-539.344L366.856 664.106h135.528l-33.93 209.31 169.458-279.08H502.384l33.93-209.312zM796.19 78.433a33.488 33.488 0 0 1 12.177 45.61l-60.914 105.914-57.565-33.321L750.773 90.72a33.128 33.128 0 0 1 45.222-12.288h0.194zM511.35 0c19.926 0 36.033 15 36.033 33.626v120.03h-72.067V33.542C475.317 15 491.424 0 511.351 0zM226.706 78.433a33.21 33.21 0 0 1 45.416 12.177l60.914 105.915-57.565 33.35-60.97-105.943a33.377 33.377 0 0 1 12.178-45.5zM18.31 287.744a33.128 33.128 0 0 1 45.388-12.177l105.527 61.218-33.21 57.787L30.457 333.27a33.377 33.377 0 0 1-12.177-45.526z m986.278 0a33.488 33.488 0 0 1-12.178 45.61l-105.5 61.135-33.21-57.814 105.5-61.191a33.21 33.21 0 0 1 45.305 12.066c0 0.111 0.083 0.111 0.083 0.194zM50.219 924.368h922.568c19.927 0 36.145 16.218 36.145 36.144s-16.218 36.144-36.145 36.144H50.22c-19.927 0-36.145-16.19-36.145-36.144a36.061 36.061 0 0 1 36.145-36.144z" p-id="2023"></path></svg>