<?xml version="1.0" standalone="no"?><!DOCTYPE svg PUBLIC "-//W3C//DTD SVG 1.1//EN" "http://www.w3.org/Graphics/SVG/1.1/DTD/svg11.dtd"><svg t="1560338497703" class="icon" style="" viewBox="0 0 1024 1024" version="1.1" xmlns="http://www.w3.org/2000/svg" p-id="15321" xmlns:xlink="http://www.w3.org/1999/xlink" width="128" height="128"><defs><style type="text/css"></style></defs><path d="M515.686461 0C234.984361 0 7.389806 227.591485 7.389806 508.293585c0 280.70517 227.594555 508.294608 508.296655 508.294608 280.7021 0 508.292562-227.589438 508.292562-508.294608C1023.979022 227.591485 796.387537 0 515.686461 0zM487.642754 740.226958l-30.53034 29.600155c-27.799136 26.861788-64.280002 40.267099-100.761891 40.267099-36.425607 0-72.845075-13.405311-100.643188-40.267099-26.992771-26.126031-41.821501-60.870346-41.821501-97.79021 0-36.979216 14.827707-71.727625 41.821501-97.845469l112.431675-108.773356c69.866231-67.568908 150.155858-77.308737 204.508767-24.75787 14.57802 14.149255 14.702863 37.291324 0.125867 51.561329-14.520715 14.275121-38.223556 14.394848-52.869115 0.190335-31.953759-30.902824-75.759451 2.230808-99.086739 24.818245L308.386114 625.998357c-12.721743 12.285814-19.671015 28.664853-19.671015 46.038546s6.950296 33.691333 19.671015 46.038546c26.493397 25.566282 69.553099 25.566282 95.987145 0l30.526247-29.596062c14.70491-14.20656 38.347376-14.142092 52.927443 0.188288C502.409063 702.94075 502.283196 726.018352 487.642754 740.226958zM775.66661 461.570447 655.725914 577.60109c-37.040614 35.859719-76.006068 53.983495-112.925932 53.983495-30.092365 0-58.883085-12.103666-84.074837-36.425607-14.640442-14.208607-14.766308-37.288255-0.125867-51.620681 14.520715-14.267958 38.223556-14.332427 52.863998-0.12382 10.921747 10.610662 36.732599 35.488259 91.523483-17.561981l119.93558-116.025527c12.784164-12.285814 19.729344-28.667923 19.729344-46.041616 0-17.371646-6.945179-33.753755-19.729344-46.038546-23.827685-23.14821-60.492746-34.31248-88.479147-7.263427l-38.035268 36.858466c-14.646582 14.146185-38.347376 14.08274-52.925397-0.187265-14.519692-14.33345-14.458293-37.412075 0.245593-51.561329l38.096666-36.852326c53.981449-52.248991 135.515417-49.207725 193.839777 7.257288 26.926256 26.118867 41.816384 60.805878 41.816384 97.78714C817.484018 400.76457 802.592866 435.45158 775.66661 461.570447z" p-id="15322"></path></svg>