<?xml version="1.0" standalone="no"?><!DOCTYPE svg PUBLIC "-//W3C//DTD SVG 1.1//EN" "http://www.w3.org/Graphics/SVG/1.1/DTD/svg11.dtd"><svg t="1597054592037" class="icon" viewBox="0 0 1024 1024" version="1.1" xmlns="http://www.w3.org/2000/svg" p-id="6767" xmlns:xlink="http://www.w3.org/1999/xlink" width="64" height="64"><defs><style type="text/css"></style></defs><path d="M512 0c282.768 0 512 229.232 512 512 0 282.768-229.232 512-512 512C229.232 1024 0 794.768 0 512 0 229.232 229.232 0 512 0z m339.6 244.96L244.96 851.6A430.16 430.16 0 0 0 512 944c238.592 0 432-193.408 432-432 0-100.8-34.528-193.536-92.4-267.04zM512 80C273.408 80 80 273.408 80 512c0 108.96 40.336 208.512 106.912 284.512l609.6-609.6A430.352 430.352 0 0 0 512 80z" p-id="6768" fill="#ffffff"></path></svg>