<?xml version="1.0" standalone="no"?><!DOCTYPE svg PUBLIC "-//W3C//DTD SVG 1.1//EN" "http://www.w3.org/Graphics/SVG/1.1/DTD/svg11.dtd"><svg t="1597053895569" class="icon" viewBox="0 0 1024 1024" version="1.1" xmlns="http://www.w3.org/2000/svg" p-id="1729" xmlns:xlink="http://www.w3.org/1999/xlink" width="64" height="64"><defs><style type="text/css"></style></defs><path d="M512 0c282.766222 0 512 229.233778 512 512s-229.233778 512-512 512S0 794.766222 0 512 229.233778 0 512 0z m0 85.333333C276.366222 85.333333 85.333333 276.366222 85.333333 512c0 235.633778 191.032889 426.666667 426.666667 426.666667 235.633778 0 426.666667-191.032889 426.666667-426.666667 0-235.633778-191.032889-426.666667-426.666667-426.666667z m0 597.333334a56.888889 56.888889 0 1 1 0 113.777777 56.888889 56.888889 0 0 1 0-113.777777z m0-440.888889a42.666667 42.666667 0 0 1 42.666667 42.666666v284.444445a42.666667 42.666667 0 0 1-85.333334 0V284.444444A42.666667 42.666667 0 0 1 512 241.777778z" fill="#ffffff" p-id="1730"></path></svg>