<?xml version="1.0" standalone="no"?><!DOCTYPE svg PUBLIC "-//W3C//DTD SVG 1.1//EN" "http://www.w3.org/Graphics/SVG/1.1/DTD/svg11.dtd"><svg t="1597054500375" class="icon" viewBox="0 0 1106 1024" version="1.1" xmlns="http://www.w3.org/2000/svg" p-id="5988" xmlns:xlink="http://www.w3.org/1999/xlink" width="69.125" height="64"><defs><style type="text/css"></style></defs><path d="M918.492281 328.327918H15.384955v68.552011h903.107326zM240.716983 233.401699a34.223675 34.223675 0 0 1-34.223675-34.223676V36.223092a34.328335 34.328335 0 1 1 68.55201 0v162.954931A34.432995 34.432995 0 0 1 240.716983 233.401699zM129.149895 525.087887a34.328335 34.328335 0 0 1 34.328335-34.223675h162.850272a34.328335 34.328335 0 1 1 0 68.55201H163.47823a34.432995 34.432995 0 0 1-34.328335-34.328335z m653.912918 67.505415a34.432995 34.432995 0 0 1 34.328335 34.223675v86.867434a34.328335 34.328335 0 0 1-68.65667 0V626.712318a34.014356 34.014356 0 0 1 34.119016-33.805037z" p-id="5989" fill="#ffffff"></path><path d="M907.084389 718.080112a34.432995 34.432995 0 0 1-34.328335 34.328335H784.946685a34.328335 34.328335 0 0 1 0-68.55201h87.390731a34.432995 34.432995 0 0 1 34.746973 34.223675z m-777.934494-9.733339a34.223675 34.223675 0 0 1 34.223675-34.223675h162.954932a34.328335 34.328335 0 1 1 0 68.55201H163.47823a34.432995 34.432995 0 0 1-34.328335-34.328335z m562.963762-474.945074a34.223675 34.223675 0 0 1-34.223675-34.223676V36.223092a34.328335 34.328335 0 1 1 68.55201 0v162.954931a34.328335 34.328335 0 0 1-34.328335 34.223676z" p-id="5990" fill="#ffffff"></path><path d="M426.383039 894.745446A34.328335 34.328335 0 1 0 460.502055 859.998473a34.328335 34.328335 0 0 0-34.119016 34.746973zM788.819089 524.35527a188.387204 188.387204 0 1 1-188.387205 188.387205 188.387204 188.387204 0 0 1 188.387205-188.387205m0-68.55201a256.834555 256.834555 0 1 0 0.627957 0z" p-id="5991" fill="#ffffff"></path><path d="M463.013885 859.998473H144.011552a77.029435 77.029435 0 0 1-76.610797-76.610797V196.875513a77.029435 77.029435 0 0 1 76.610797-76.610796h645.330834a77.029435 77.029435 0 0 1 76.610797 76.610796v198.85316h67.400755V199.701321a146.523381 146.523381 0 0 0-146.523381-146.523381H147.465317A147.360658 147.360658 0 0 0 0 199.701321v581.279185a146.523381 146.523381 0 0 0 146.523381 146.523382h316.490504z" p-id="5992" fill="#ffffff"></path></svg>