<?xml version="1.0" standalone="no"?><!DOCTYPE svg PUBLIC "-//W3C//DTD SVG 1.1//EN" "http://www.w3.org/Graphics/SVG/1.1/DTD/svg11.dtd"><svg t="1597057966053" class="icon" viewBox="0 0 1024 1024" version="1.1" xmlns="http://www.w3.org/2000/svg" p-id="1955" xmlns:xlink="http://www.w3.org/1999/xlink" width="64" height="64"><defs><style type="text/css"></style></defs><path d="M267.68411 459.308941c0 24.77629 20.087501 44.857651 44.858674 44.85765s44.857651-20.087501 44.857651-44.85765c0-24.77629-20.087501-44.857651-44.858674-44.857651-24.777313 0-44.857651 20.086477-44.857651 44.857651z m199.415772 0c0 24.77629 20.086477 44.857651 44.857651 44.85765 24.772196 0 44.858674-20.087501 44.858674-44.85765 0-24.77629-20.086477-44.857651-44.858674-44.857651-24.771173 0-44.859697 20.086477-44.859697 44.857651h0.002046z m199.463868 0c0 24.77629 20.086477 44.857651 44.856627 44.85765 24.778336 0 44.856627-20.087501 44.856627-44.85765 0-24.77629-20.085454-44.857651-44.856627-44.857651-24.777313 0-44.856627 20.086477-44.856627 44.857651z m40.08495 419.718247c-15.981996 0-30.951943-6.404873-42.085514-18.026562 0 0-46.125527-47.835472-99.262748-102.970187-11.704576-12.153808-11.336186-31.521924 0.817622-43.271526 12.151761-11.664667 31.484062-11.378142 43.270503 0.817622l99.177813 102.927207 19.043728-89.347934c3.50994-13.500479 15.703657-22.917966 29.650297-22.917965h81.440848c32.827663 0 59.541071-28.222785 59.541071-62.965054V269.063015c0-20.511149-5.221932-36.09201-15.456017-46.326095-16.558118-16.435321-43.227524-16.637935-43.837414-16.637935H185.349917c-32.82664 0-59.542094 28.221762-59.542095 62.927191v374.167818c0 34.743292 26.714432 62.965054 59.542095 62.965054h252.721838c16.886599 0 30.587646 13.699 30.587646 30.585599 0 16.885576-13.701047 30.589692-30.587646 30.589692H185.3448c-66.556858 0-120.711246-55.704696-120.711246-124.140345V269.070178c0-68.430532 54.156434-124.096343 120.711246-124.096342h653.308353c9.098215-0.044002 53.994752 1.427512 87.230714 34.459836 22.227234 22.103414 33.481556 52.28276 33.481555 89.678462v374.166795c0 68.428485-54.156434 124.139322-120.712269 124.139321h-57.746192l-16.759709 64.965618c-1.750877 9.625218-7.216355 20.265556-15.416108 28.707832-11.128455 11.534707-26.098401 17.935488-42.082444 17.935488z" fill="#ffffff" p-id="1956"></path></svg>