<?xml version="1.0" standalone="no"?><!DOCTYPE svg PUBLIC "-//W3C//DTD SVG 1.1//EN" "http://www.w3.org/Graphics/SVG/1.1/DTD/svg11.dtd"><svg t="1597057155344" class="icon" viewBox="0 0 1024 1024" version="1.1" xmlns="http://www.w3.org/2000/svg" p-id="8629" xmlns:xlink="http://www.w3.org/1999/xlink" width="64" height="64"><defs><style type="text/css"></style></defs><path d="M742.741333 544.085333c1.479111 1.137778 2.901333 2.389333 4.209778 3.754667 0.284444 0.284444 6.314667 6.542222 14.904889 12.572444 13.824 9.898667 22.357333 11.377778 26.225778 11.377778s12.344889-1.479111 25.998222-11.093333c7.68-5.404444 13.198222-10.808889 14.506667-12.060445a37.888 37.888 0 0 1 9.784889-7.281777 40.732444 40.732444 0 0 1 35.214222 0.227555l53.475555 29.696c15.872 8.760889 22.471111 28.216889 15.303111 44.885334a56.888889 56.888889 0 0 0-4.494222 19.342222c0 27.136 21.276444 49.550222 48.469334 50.972444 16.497778 0.853333 30.151111 13.084444 32.995555 29.297778a290.133333 290.133333 0 0 1 4.664889 45.226667c0 11.662222-1.592889 27.192889-4.551111 44.885333a35.783111 35.783111 0 0 1-33.109333 29.696 51.086222 51.086222 0 0 0-48.469334 51.086222c0 6.371556 2.446222 14.506667 4.551111 19.512889a35.328 35.328 0 0 1-15.473777 44.600889l-54.328889 30.037333a35.271111 35.271111 0 0 1-17.066667 4.437334h-0.113778a41.244444 41.244444 0 0 1-22.243555-7.054223 35.612444 35.612444 0 0 1-5.290667-4.551111 120.888889 120.888889 0 0 0-15.416889-13.767111c-10.353778-7.68-19.911111-11.946667-26.794667-11.946666-3.982222 0-12.686222 1.536-26.567111 11.719111a124.416 124.416 0 0 0-14.392889 12.401777l-0.568888 0.568889a40.049778 40.049778 0 0 1-4.835556 4.380445 39.310222 39.310222 0 0 1-40.334222 3.072l-52.394667-29.354667a35.384889 35.384889 0 0 1-15.075555-45.112889 56.490667 56.490667 0 0 0 4.323555-18.944 51.086222 51.086222 0 0 0-48.412444-51.086222 35.271111 35.271111 0 0 1-32.995556-29.354667 282.339556 282.339556 0 0 1-4.664889-45.226666c0-14.791111 2.503111-32.654222 4.608-44.942223a35.612444 35.612444 0 0 1 32.995556-29.582222 51.086222 51.086222 0 0 0 48.469333-50.972444c0-5.290667-1.763556-12.913778-4.608-19.854222a35.328 35.328 0 0 1 15.644445-44.373334l55.352888-30.435555a40.220444 40.220444 0 0 1 40.504889 3.242666zM395.946667 0c148.764444 0 237.454222 90.168889 237.454222 241.095111 0 110.819556-13.198222 245.418667-111.672889 321.080889v7.452444c25.315556 3.868444 50.574222 9.102222 74.865778 15.644445a317.44 317.44 0 0 0-57.059556 61.781333 634.311111 634.311111 0 0 0-58.197333-8.817778 36.408889 36.408889 0 0 1-32.597333-36.408888V543.288889c0-12.515556 6.485333-24.120889 16.896-30.833778C548.977778 459.207111 560.355556 345.429333 560.355556 241.322667c0-111.445333-55.352889-168.049778-164.408889-168.049778h-7.907556c-109.056 0-164.408889 56.604444-164.408889 168.049778 0 104.334222 11.207111 217.884444 94.776889 271.132444a36.295111 36.295111 0 0 1 16.839111 30.833778v58.595555a36.579556 36.579556 0 0 1-32.540444 36.352c-138.126222 14.506667-229.774222 67.754667-229.774222 96.711112 0 74.410667 104.561778 112.128 311.011555 112.128 43.406222 0 82.944-1.706667 118.328889-5.233778 5.859556 22.584889 15.246222 44.259556 27.591111 64.739555l3.242667 5.176889c-42.552889 5.404444-91.932444 8.419556-149.162667 8.419556-258.446222 0-384-60.529778-384-185.287111 0-87.608889 130.503111-145.180444 262.314667-165.262223v-7.395555C163.84 486.684444 150.755556 351.857778 150.755556 241.038222 150.698667 90.168889 239.388444 0 388.096 0h7.850667z m319.715555 614.115556l-10.353778 5.688888c0.739556 5.006222 1.194667 10.24 1.194667 15.701334a121.742222 121.742222 0 0 1-85.674667 116.280889 112.64 112.64 0 0 0 0 18.545777 121.742222 121.742222 0 0 1 85.674667 116.337778c0 5.518222-0.455111 10.922667-1.251555 15.928889l6.997333 3.925333c1.592889-1.251556 3.299556-2.56 5.063111-3.811555 22.983111-16.896 46.023111-25.429333 68.380444-25.429333 22.641778 0 45.852444 8.704 68.949334 25.884444l5.12 3.982222 8.704-4.778666a104.903111 104.903111 0 0 1-1.251556-15.701334c0-54.499556 35.84-100.920889 85.674667-116.337778a111.786667 111.786667 0 0 0 0-18.545777 121.742222 121.742222 0 0 1-85.674667-116.280889c0-5.575111 0.512-10.922667 1.251556-15.928889l-8.647111-4.778667a196.608 196.608 0 0 1-5.063111 3.640889c-45.283556 31.914667-88.632889 31.857778-133.859556-0.455111a133.973333 133.973333 0 0 1-5.290667-3.868444z" p-id="8630" fill="#ffffff"></path></svg>