<?xml version="1.0" standalone="no"?><!DOCTYPE svg PUBLIC "-//W3C//DTD SVG 1.1//EN" "http://www.w3.org/Graphics/SVG/1.1/DTD/svg11.dtd"><svg t="1606887439353" class="icon" viewBox="0 0 1024 1024" version="1.1" xmlns="http://www.w3.org/2000/svg" p-id="7235" xmlns:xlink="http://www.w3.org/1999/xlink" width="200" height="200"><defs><style type="text/css"></style></defs><path d="M495.3 300.5c-100.3 10.5-187 101.1-187 208.6 0 115.2 93.4 208.6 208.6 208.6 84.8 0 157.7-50.7 190.3-123.4l-211.9-63.5V300.5z m28.7-43.2v248.8L753.4 575c10.1-25.2 15.2-52.1 15.2-79.3 0-131.7-123-238.4-244.6-238.4z m-11.2 703.3C265.7 960.6 65.3 760.2 65.3 513S265.7 65.5 512.8 65.5 960.4 265.9 960.4 513 760 960.6 512.8 960.6z" fill="#ffffff" p-id="7236"></path></svg>