<?xml version="1.0" standalone="no"?><!DOCTYPE svg PUBLIC "-//W3C//DTD SVG 1.1//EN" "http://www.w3.org/Graphics/SVG/1.1/DTD/svg11.dtd"><svg t="1597056824434" class="icon" viewBox="0 0 1024 1024" version="1.1" xmlns="http://www.w3.org/2000/svg" p-id="8367" xmlns:xlink="http://www.w3.org/1999/xlink" width="64" height="64"><defs><style type="text/css"></style></defs><path d="M954.584 766.134c-11.165-13.35-17.84-29.613-18.568-46.603 0-16.87 5.704-33.254 16.262-46.361 4.127-6.19 4.127-14.2 0-20.268l-31.311-52.428c-3.884-7.04-11.53-11.166-19.418-10.316-33.74 3.883-65.658-15.656-77.673-47.21-2.912-6.918-9.709-11.53-17.233-11.287H751.18c-13.107 0-20.146 4.369-22.574 11.287-12.5 33.496-47.21 53.157-82.405 47.088-7.525-1.335-15.05 2.428-18.811 9.103l-31.312 52.064c-4.248 6.19-4.248 14.564 0 20.632 23.18 27.67 23.18 67.963 0 95.634-4.248 6.19-4.248 14.564 0 20.632l31.312 52.064c3.762 6.797 11.286 10.316 18.81 9.103 35.196-6.19 69.785 13.592 82.406 47.089 2.913 6.917 9.71 11.529 17.234 11.286h55.22c13.107 0 20.146-4.369 22.574-11.286 12.257-32.647 45.632-52.43 80.22-47.21 8.01 0.849 15.656-3.277 19.419-10.317l31.311-52.428c4.127-6.19 4.127-14.2 0-20.268z m-179.253 39.079c-47.21 0-85.56-38.35-85.56-85.561s38.35-85.56 85.56-85.56 85.561 38.35 85.561 85.56c0.121 47.332-38.35 85.56-85.56 85.56zM614.89 363.088H278.714c-15.05 0-27.307-12.258-27.307-27.307s12.258-27.307 27.307-27.307h336.175c15.05 0 27.307 12.258 27.307 27.307s-12.136 27.307-27.307 27.307z m-60.681 143.936H278.714c-15.05 0-27.307-12.258-27.307-27.307s12.258-27.306 27.307-27.306h275.494c15.049 0 27.306 12.257 27.306 27.306s-12.136 27.307-27.306 27.307z m-60.56 157.893H278.835c-15.049 0-27.306-12.257-27.306-27.306s12.257-27.307 27.306-27.307h214.813c15.049 0 27.306 12.258 27.306 27.307s-12.257 27.306-27.306 27.306z" p-id="8368" fill="#ffffff"></path><path d="M521.44 918.202H186.478c-49.88 0-90.415-40.535-90.415-90.416V177.281c0-49.88 40.535-90.415 90.415-90.415h520.647c49.88 0 90.416 40.535 90.416 90.415v269.668c0 15.05-12.258 27.307-27.307 27.307s-27.307-12.258-27.307-27.307V177.281c0-19.782-16.02-35.802-35.802-35.802H186.478c-19.782 0-35.802 16.02-35.802 35.802v650.505c0 19.783 16.02 35.803 35.802 35.803H521.44c15.049 0 27.306 12.257 27.306 27.306s-12.257 27.307-27.306 27.307z" p-id="8369" fill="#ffffff"></path></svg>