<?xml version="1.0" standalone="no"?><!DOCTYPE svg PUBLIC "-//W3C//DTD SVG 1.1//EN" "http://www.w3.org/Graphics/SVG/1.1/DTD/svg11.dtd"><svg t="1606887290464" class="icon" viewBox="0 0 1024 1024" version="1.1" xmlns="http://www.w3.org/2000/svg" p-id="5461" xmlns:xlink="http://www.w3.org/1999/xlink" width="200" height="200"><defs><style type="text/css"></style></defs><path d="M832 64c34.992 0 63.4256 28.0832 63.992 62.9424L896 128v448.8448c0 13.256-10.7456 24-24 24-13.088 0-23.728-10.4736-23.9952-23.4976l-0.0048-0.5024V128c0-8.688-6.9232-15.7568-15.552-15.9936L832 112H192c-8.688 0-15.7568 6.9232-15.9936 15.552L176 128v768c0 8.688 6.9232 15.7568 15.552 15.9936l0.448 0.0064h320.4784c13.2544 0 24 10.7456 24 24 0 13.088-10.4752 23.728-23.4992 23.9952l-0.5008 0.0048H192c-34.992 0-63.4256-28.0832-63.992-62.9424L128 896V128c0-34.992 28.0832-63.4256 62.9424-63.992L192 64h640z m-152 512c92.784 0 168 75.216 168 168 0 37.736-12.4416 72.5664-33.448 100.6128l74.016 74.016c9.3728 9.3712 9.3728 24.5664 0 33.9392-9.3728 9.3728-24.568 9.3728-33.9408 0l-74.0144-74.016C752.5664 899.5584 717.736 912 680 912c-92.784 0-168-75.216-168-168s75.216-168 168-168z m0 48c-66.2736 0-120 53.7264-120 120s53.7264 120 120 120c26.3264 0 51.2448-8.4432 71.8384-23.8672l13.8912-10.4032 10.4032-13.8912C791.5568 795.2464 800 770.3264 800 744c0-66.2736-53.7264-120-120-120z m-64-224c13.2544 0 24 10.7456 24 24 0 13.2544-10.7456 24-24 24H344c-13.2544 0-24-10.7456-24-24 0-13.2544 10.7456-24 24-24h272z m64-144c13.2544 0 24 10.7456 24 24 0 13.2544-10.7456 24-24 24H344c-13.2544 0-24-10.7456-24-24 0-13.2544 10.7456-24 24-24h336z" fill="#ffffff" p-id="5462"></path></svg>