<?xml version="1.0" standalone="no"?><!DOCTYPE svg PUBLIC "-//W3C//DTD SVG 1.1//EN" "http://www.w3.org/Graphics/SVG/1.1/DTD/svg11.dtd"><svg t="1597056701529" class="icon" viewBox="0 0 1024 1024" version="1.1" xmlns="http://www.w3.org/2000/svg" p-id="7149" xmlns:xlink="http://www.w3.org/1999/xlink" width="64" height="64"><defs><style type="text/css"></style></defs><path d="M727.28221018 688.14529886h-433.89283144v-136.73093432h433.89283144z" p-id="7150" fill="#ffffff"></path><path d="M871.07757585 1019.262045h-721.48356276a133.54054539 133.54054539 0 0 1-133.31266109-133.54054587v-551.70931995a113.94244531 113.94244531 0 0 1 113.94244517-113.94244524h740.85377868a133.31266079 133.31266079 0 0 1 133.31266107 133.31266089v532.3391043a133.54054539 133.54054539 0 0 1-133.31266107 133.54054587z m-740.85377868-730.82684398a45.57697778 45.57697778 0 0 0-45.57697794 45.57697816v551.70931995a65.17507915 65.17507915 0 0 0 64.94719386 65.17507795h721.48356276a65.17507915 65.17507915 0 0 0 64.94719381-65.17507795v-532.3391043a65.17507915 65.17507915 0 0 0-64.94719381-64.94719381zM735.25818138 183.60815134a34.18273355 34.18273355 0 0 1-34.18273374-34.18273358v-9.34328036c0-37.37312196-22.78848889-68.36546716-53.55294922-68.36546699h-291.69265961c-19.59810052 0-36.23369758 22.78848889-36.23369755 47.62794208V149.88118767a34.18273355 34.18273355 0 0 1-68.36546719 0v-29.39715116a110.979942 110.979942 0 0 1 104.59916474-115.99340928H647.06672873c68.36546716 0 121.91841619 61.07315074 121.91841651 136.73093447v8.65962597a34.18273355 34.18273355 0 0 1-33.72696386 33.72696367z" p-id="7151" fill="#ffffff"></path><path d="M578.7012616 407.61899879v423.86589628h-136.7309343v-423.86589628z" p-id="7152" fill="#ffffff"></path></svg>