<?xml version="1.0" standalone="no"?><!DOCTYPE svg PUBLIC "-//W3C//DTD SVG 1.1//EN" "http://www.w3.org/Graphics/SVG/1.1/DTD/svg11.dtd"><svg t="1606887255134" class="icon" viewBox="0 0 1024 1024" version="1.1" xmlns="http://www.w3.org/2000/svg" p-id="4395" xmlns:xlink="http://www.w3.org/1999/xlink" width="200" height="200"><defs><style type="text/css"></style></defs><path d="M893.328 142.128h-125.856V92.16A29.28 29.28 0 0 0 737.328 64H278.4a29.28 29.28 0 0 0-30.144 28.16v49.968h-118.4a32.72 32.72 0 0 0-33.92 31.68V928.32A32.72 32.72 0 0 0 129.856 960h764.176a32.72 32.72 0 0 0 33.92-31.68V173.808a33.888 33.888 0 0 0-34.624-31.68zM308.512 120.304H707.2v80.24H308.528z m550.896 776.352H163.056v-691.2h84.4v23.232a29.296 29.296 0 0 0 30.144 28.16h458.96a29.28 29.28 0 0 0 30.144-28.16v-23.216h91.936v691.2z" p-id="4396" fill="#ffffff"></path><path d="M696.048 524.88h-144.816v-145.6a33.248 33.248 0 0 0-66.496 0v144.816h-144.8a33.248 33.248 0 1 0 0 66.496h144.8v144.816a33.248 33.248 0 0 0 66.496 0v-144h144.816a33.248 33.248 0 0 0 0-66.496z" p-id="4397" fill="#ffffff"></path></svg>