<?xml version="1.0" standalone="no"?><!DOCTYPE svg PUBLIC "-//W3C//DTD SVG 1.1//EN" "http://www.w3.org/Graphics/SVG/1.1/DTD/svg11.dtd"><svg t="1597058953961" class="icon" viewBox="0 0 1024 1024" version="1.1" xmlns="http://www.w3.org/2000/svg" p-id="2436" xmlns:xlink="http://www.w3.org/1999/xlink" width="64" height="64"><defs><style type="text/css"></style></defs><path d="M914.285714 768c7.314286 7.314286 14.628571 14.628571 14.628572 29.257143 0 7.314286-7.314286 21.942857-7.314286 21.942857l-182.857143 175.542857c-7.314286 7.314286-14.628571 7.314286-29.257143 7.314286-7.314286 0-21.942857 0-29.257143-7.314286l-109.714285-102.4c-7.314286-7.314286-7.314286-14.628571-7.314286-21.942857 0-7.314286 7.314286-21.942857 7.314286-21.942857 14.628571-14.628571 36.571429-14.628571 51.2 0l80.457143 73.142857 160.914285-153.6c14.628571-14.628571 36.571429-14.628571 51.2 0zM768 21.942857c73.142857 0 131.657143 58.514286 131.657143 131.657143v453.485714c0 21.942857-14.628571 36.571429-36.571429 36.571429s-36.571429-14.628571-36.571428-36.571429V153.6c0-14.628571-7.314286-29.257143-14.628572-43.885714-14.628571-14.628571-29.257143-14.628571-43.885714-14.628572H182.857143c-14.628571 0-29.257143 7.314286-43.885714 14.628572-14.628571 14.628571-14.628571 36.571429-14.628572 51.2v709.485714c0 14.628571 7.314286 29.257143 14.628572 43.885714 14.628571 14.628571 29.257143 14.628571 43.885714 14.628572h270.628571c21.942857 0 36.571429 14.628571 36.571429 36.571428s-14.628571 36.571429-36.571429 36.571429H182.857143c-73.142857 0-131.657143-58.514286-131.657143-131.657143V160.914286C51.2 87.771429 109.714286 29.257143 182.857143 29.257143l585.142857-7.314286zM526.628571 548.571429c21.942857 0 36.571429 14.628571 36.571429 36.571428s-14.628571 36.571429-36.571429 36.571429H285.257143c-21.942857 0-36.571429-14.628571-36.571429-36.571429s14.628571-36.571429 36.571429-36.571428h241.371428z m146.285715-197.485715c21.942857 0 36.571429 14.628571 36.571428 36.571429s-14.628571 36.571429-36.571428 36.571428H285.257143c-21.942857 0-36.571429-14.628571-36.571429-36.571428s14.628571-36.571429 36.571429-36.571429h387.657143z" fill="#ffffff" p-id="2437"></path></svg>