<?xml version="1.0" standalone="no"?><!DOCTYPE svg PUBLIC "-//W3C//DTD SVG 1.1//EN" "http://www.w3.org/Graphics/SVG/1.1/DTD/svg11.dtd"><svg t="1597059018564" class="icon" viewBox="0 0 1024 1024" version="1.1" xmlns="http://www.w3.org/2000/svg" p-id="2962" xmlns:xlink="http://www.w3.org/1999/xlink" width="64" height="64"><defs><style type="text/css"></style></defs><path d="M983.630276 642.089158l-74.802755-63.980852a410.866748 410.866748 0 0 0 0-132.129598l74.802755-63.980852a36.560487 36.560487 0 0 0 10.602541-40.216535l-1.023693-2.924839a506.947706 506.947706 0 0 0-91.035612-157.575697l-2.047387-2.412992a36.706728 36.706728 0 0 0-40.143414-10.821904l-92.863636 32.977559a402.604078 402.604078 0 0 0-113.922476-65.808876L635.281961 38.10992a36.560487 36.560487 0 0 0-29.467753-29.32151L602.670007 8.203442a516.160949 516.160949 0 0 0-181.705618 0l-3.071081 0.584968a36.560487 36.560487 0 0 0-29.467753 29.32151l-18.06088 97.616499a402.01911 402.01911 0 0 0-113.118145 65.516392l-93.594846-33.196922a36.560487 36.560487 0 0 0-40.070293 10.821904l-2.047387 2.412992A509.653182 509.653182 0 0 0 30.571513 338.856482l-1.023693 2.924839a36.706728 36.706728 0 0 0 10.602541 40.216535l75.753328 64.712062a402.01911 402.01911 0 0 0 0 130.447816l-75.753328 64.63894a36.560487 36.560487 0 0 0-10.602541 40.216535l1.023693 2.99796A508.263884 508.263884 0 0 0 121.534004 842.659987l2.047387 2.412992a36.706728 36.706728 0 0 0 40.070293 10.821904l93.594846-33.270043a399.240513 399.240513 0 0 0 113.118145 65.589513l18.06088 97.616499a36.560487 36.560487 0 0 0 29.467753 29.32151l3.071081 0.584968a513.455473 513.455473 0 0 0 181.705618 0l3.07108-0.584968a36.560487 36.560487 0 0 0 29.467753-29.32151l17.914638-97.177773a399.898602 399.898602 0 0 0 113.922476-65.808876l92.863636 33.05068a36.560487 36.560487 0 0 0 40.143414-10.821904l2.047387-2.412992a509.653182 509.653182 0 0 0 91.035612-157.575697l1.023693-2.924839a36.414245 36.414245 0 0 0-10.602541-39.997172zM827.663241 459.506088a323.340943 323.340943 0 0 1 0 105.294201l-7.53146 45.84685 85.332175 72.974731c-12.869291 29.833357-29.248389 57.911811-48.625447 84.089119l-106.025411-37.58418-35.902398 29.467752c-27.274123 22.448139-57.765569 39.997172-90.670006 52.354617l-43.433858 16.305977-20.473873 110.851395c-32.173228 3.656049-64.931424 3.656049-97.104652 0l-20.473873-111.070758-43.141374-16.52534a319.611773 319.611773 0 0 1-89.938797-52.208375l-35.829276-29.613994-106.756621 37.949785a431.706225 431.706225 0 0 1-48.698568-84.089119l86.282748-73.705941-7.458339-45.700608a314.932031 314.932031 0 0 1 0-103.978023l7.458339-45.700609-86.282748-73.70594c12.942412-29.833357 29.248389-57.911811 48.698568-84.08912l106.756621 37.949786 35.829276-29.613995c27.05476-22.228776 57.326843-39.85093 89.938797-52.208374l43.287616-16.305977 20.473873-111.070758c32.026986-3.656049 64.858303-3.656049 97.031531 0l20.473873 110.851395 43.506979 16.305977c32.831317 12.357444 63.322763 29.979599 90.670006 52.354616l35.829277 29.467753 106.025411-37.584181c19.450179 26.177308 35.683035 54.402004 48.698568 84.089119l-85.332175 72.974732 7.385218 45.627487zM512 299.663641a201.082676 201.082676 0 1 0 0 402.165352 201.082676 201.082676 0 0 0 0-402.165352zM602.523765 591.123839c-24.276163 24.129921-56.303149 37.511059-90.523765 37.51106-34.147494 0-66.247602-13.381138-90.450644-37.51106a127.522977 127.522977 0 0 1-37.511059-90.450643c0-34.147494 13.381138-66.320723 37.511059-90.523765 24.129921-24.203042 56.303149-37.437938 90.450644-37.437938 34.147494 0 66.247602 13.234896 90.523765 37.437938 24.129921 24.276163 37.437938 56.303149 37.437938 90.523765 0 34.147494-13.381138 66.247602-37.437938 90.450643z" fill="#ffffff" p-id="2963"></path></svg>