<?xml version="1.0" standalone="no"?><!DOCTYPE svg PUBLIC "-//W3C//DTD SVG 1.1//EN" "http://www.w3.org/Graphics/SVG/1.1/DTD/svg11.dtd"><svg t="1597058616496" class="icon" viewBox="0 0 1024 1024" version="1.1" xmlns="http://www.w3.org/2000/svg" p-id="1845" xmlns:xlink="http://www.w3.org/1999/xlink" width="64" height="64"><defs><style type="text/css"></style></defs><path d="M170.666667 149.333333a21.333333 21.333333 0 0 0-21.333334 21.333334v682.666666a21.333333 21.333333 0 0 0 21.333334 21.333334h682.666666a21.333333 21.333333 0 0 0 21.333334-21.333334V170.666667a21.333333 21.333333 0 0 0-21.333334-21.333334H170.666667z m0-64h682.666666a85.333333 85.333333 0 0 1 85.333334 85.333334v682.666666a85.333333 85.333333 0 0 1-85.333334 85.333334H170.666667a85.333333 85.333333 0 0 1-85.333334-85.333334V170.666667a85.333333 85.333333 0 0 1 85.333334-85.333334z" p-id="1846" fill="#ffffff"></path><path d="M288 362.666667h426.666667a32 32 0 0 0 0-64h-426.666667a32 32 0 0 0 0 64zM288 533.333333h256a32 32 0 0 0 0-64h-256a32 32 0 0 0 0 64zM650.666667 533.333333h42.666666a32 32 0 0 0 0-64h-42.666666a32 32 0 0 0 0 64zM288 704h426.666667a32 32 0 0 0 0-64h-426.666667a32 32 0 0 0 0 64z" p-id="1847" fill="#ffffff"></path></svg>