<?xml version="1.0" standalone="no"?><!DOCTYPE svg PUBLIC "-//W3C//DTD SVG 1.1//EN" "http://www.w3.org/Graphics/SVG/1.1/DTD/svg11.dtd"><svg t="1597058864595" class="icon" viewBox="0 0 1024 1024" version="1.1" xmlns="http://www.w3.org/2000/svg" p-id="2159" xmlns:xlink="http://www.w3.org/1999/xlink" width="64" height="64"><defs><style type="text/css"></style></defs><path d="M0 1024V0h1024v1024H0zM938.666667 85.333333H85.333333v853.333334h853.333334V85.333333zM512 170.666667c5.845333 0 11.656533 0.1536 17.425067 0.4352 1.9968 0.1024 3.968 0.315733 5.947733 0.452266 3.7632 0.256 7.534933 0.477867 11.255467 0.853334 2.414933 0.247467 4.7872 0.605867 7.185066 0.896 3.259733 0.401067 6.528 0.750933 9.762134 1.245866 2.6112 0.392533 5.179733 0.913067 7.773866 1.365334 2.9696 0.520533 5.947733 0.989867 8.891734 1.5872 2.7392 0.554667 5.435733 1.2288 8.157866 1.851733 2.7392 0.631467 5.495467 1.2032 8.209067 1.8944 2.8416 0.725333 5.640533 1.570133 8.456533 2.372267 2.5344 0.708267 5.085867 1.373867 7.586134 2.1504 2.935467 0.904533 5.819733 1.92 8.721066 2.901333 2.321067 0.785067 4.676267 1.527467 6.980267 2.363733 3.012267 1.092267 5.973333 2.295467 8.942933 3.473067 2.133333 0.8448 4.283733 1.6384 6.4 2.517333 3.080533 1.297067 6.109867 2.696533 9.147734 4.0704 1.928533 0.878933 3.8912 1.7152 5.802666 2.628267 3.1488 1.493333 6.237867 3.106133 9.335467 4.693333 1.732267 0.896 3.498667 1.749333 5.213867 2.670934 3.2 1.723733 6.340267 3.549867 9.489066 5.367466 1.544533 0.887467 3.106133 1.749333 4.642134 2.6624 3.242667 1.954133 6.4256 4.002133 9.608533 6.050134 1.348267 0.878933 2.730667 1.7152 4.0704 2.6112 3.2768 2.193067 6.493867 4.471467 9.693867 6.766933 1.169067 0.8448 2.363733 1.655467 3.524266 2.5088 3.3024 2.432 6.528 4.957867 9.745067 7.5008 0.989867 0.7936 2.005333 1.5616 2.9952 2.363733 3.310933 2.679467 6.536533 5.4528 9.736533 8.260267 0.836267 0.725333 1.681067 1.4336 2.5088 2.167467 3.293867 2.944 6.5024 5.9648 9.6768 9.028266 0.674133 0.657067 1.373867 1.288533 2.048 1.954134 3.259733 3.191467 6.434133 6.4768 9.565867 9.796266l1.629867 1.706667c3.2 3.456 6.3232 6.9888 9.386666 10.5728 0.4096 0.4864 0.836267 0.955733 1.2544 1.442133 3.131733 3.712 6.1696 7.492267 9.1392 11.332267l0.9216 1.1776c3.037867 3.950933 5.981867 7.9872 8.840534 12.074667l0.648533 0.896c2.9184 4.1984 5.7344 8.465067 8.465067 12.791466l0.4096 0.64c2.781867 4.4288 5.4528 8.917333 8.029866 13.482667l0.221867 0.384c2.619733 4.642133 5.128533 9.352533 7.5264 14.122667l0.085333 0.1536A339.575467 339.575467 0 0 1 853.12 503.466667c0.068267 2.8416 0.213333 5.674667 0.213333 8.533333 0 188.509867-152.823467 341.333333-341.333333 341.333333-188.5184 0-341.333333-152.823467-341.333333-341.333333 0-188.5184 152.814933-341.333333 341.333333-341.333333z m0 597.333333c141.380267 0 256-114.619733 256-256 0-2.884267-0.341333-5.674667-0.4352-8.533333H512V256c-141.3888 0-256 114.6112-256 256 0 141.380267 114.6112 256 256 256z" p-id="2160" fill="#ffffff"></path></svg>