<?xml version="1.0" standalone="no"?><!DOCTYPE svg PUBLIC "-//W3C//DTD SVG 1.1//EN" "http://www.w3.org/Graphics/SVG/1.1/DTD/svg11.dtd"><svg t="1597057848055" class="icon" viewBox="0 0 1025 1024" version="1.1" xmlns="http://www.w3.org/2000/svg" p-id="1165" xmlns:xlink="http://www.w3.org/1999/xlink" width="64.0625" height="64"><defs><style type="text/css"></style></defs><path d="M476.1 613h73.2c20.5 0 36.6-16.1 36.6-36.6s-16.1-36.6-36.6-36.6h-73.2c-20.5 0-36.6 16.1-36.6 36.6 0 20.4 16.1 36.6 36.6 36.6z m0 146.4h73.2c20.5 0 36.6-16.1 36.6-36.6s-16.1-36.6-36.6-36.6h-73.2c-20.5 0-36.6 16.1-36.6 36.6s16.1 36.6 36.6 36.6z m402.8-659.1H732.4V63.6c0-20.5-16.1-36.6-36.6-36.6s-36.6 16.1-36.6 36.6v36.6h-293V63.6c0-20.5-16.1-36.6-36.6-36.6S293 43.1 293 63.6v36.6H146.5C65.9 100.3 0 166.2 0 246.7v585.9c0 80.6 65.9 146.5 146.5 146.5h732.4c80.6 0 146.5-65.9 146.5-146.5V246.7c0-80.5-65.9-146.4-146.5-146.4z m73.2 732.4c0 40.3-33 73.2-73.2 73.2H146.5c-40.3 0-73.2-33-73.2-73.2V393.2h878.9v439.5z m0-512.7H73.2v-73.2c0-40.3 33-73.2 73.2-73.2H293v36.6c0 20.5 16.1 36.6 36.6 36.6s36.6-16.1 36.6-36.6v-36.6h293v36.6c0 20.5 16.1 36.6 36.6 36.6s36.6-16.1 36.6-36.6v-36.6h146.5c40.3 0 73.2 33 73.2 73.2V320zM256.3 759.4h73.2c20.5 0 36.6-16.1 36.6-36.6s-16.1-36.6-36.6-36.6h-73.2c-20.5 0-36.6 16.1-36.6 36.6s16.1 36.6 36.6 36.6zM695.8 613H769c20.5 0 36.6-16.1 36.6-36.6s-16.1-36.6-36.6-36.6h-73.2c-20.5 0-36.6 16.1-36.6 36.6 0 20.4 16.1 36.6 36.6 36.6z m-439.5 0h73.2c20.5 0 36.6-16.1 36.6-36.6s-16.1-36.6-36.6-36.6h-73.2c-20.5 0-36.6 16.1-36.6 36.6 0 20.4 16.1 36.6 36.6 36.6z m439.5 146.4H769c20.5 0 36.6-16.1 36.6-36.6s-16.1-36.6-36.6-36.6h-73.2c-20.5 0-36.6 16.1-36.6 36.6s16.1 36.6 36.6 36.6z" p-id="1166" fill="#ffffff"></path></svg>