<?xml version="1.0" standalone="no"?><!DOCTYPE svg PUBLIC "-//W3C//DTD SVG 1.1//EN" "http://www.w3.org/Graphics/SVG/1.1/DTD/svg11.dtd"><svg t="1606887496078" class="icon" viewBox="0 0 1024 1024" version="1.1" xmlns="http://www.w3.org/2000/svg" p-id="8027" xmlns:xlink="http://www.w3.org/1999/xlink" width="200" height="200"><defs><style type="text/css"></style></defs><path d="M680.96 1024H143.36C61.44 1024 0 962.56 0 885.76V348.16C0 266.24 61.44 204.8 143.36 204.8h537.6C757.76 204.8 819.2 266.24 819.2 348.16v537.6c0 76.8-61.44 138.24-138.24 138.24zM143.36 307.2c-25.6 0-40.96 15.36-40.96 40.96v537.6c0 20.48 15.36 35.84 40.96 35.84h537.6c20.48 0 40.96-15.36 40.96-40.96V348.16c-5.12-25.6-20.48-40.96-40.96-40.96H143.36z" p-id="8028" fill="#ffffff"></path><path d="M921.6 819.2h-102.4v-102.4h102.4V102.4H307.2v102.4H204.8V102.4c0-56.32 46.08-102.4 102.4-102.4h614.4c56.32 0 102.4 46.08 102.4 102.4v614.4c0 56.32-46.08 102.4-102.4 102.4z" p-id="8029" fill="#ffffff"></path><path d="M563.2 665.6H460.8v-51.2h102.4c30.72 0 51.2-20.48 51.2-51.2s-20.48-51.2-51.2-51.2H506.88l51.2-51.2c20.48-20.48 20.48-51.2 0-71.68-20.48-20.48-51.2-20.48-71.68 0L414.72 460.8 343.04 389.12c-20.48-20.48-51.2-20.48-71.68 0-20.48 20.48-20.48 51.2 0 71.68l51.2 51.2H256c-30.72 0-51.2 20.48-51.2 51.2s20.48 51.2 51.2 51.2h102.4v51.2H256c-30.72 0-51.2 20.48-51.2 51.2s20.48 51.2 51.2 51.2h102.4v51.2c0 30.72 20.48 51.2 51.2 51.2s51.2-20.48 51.2-51.2v-51.2h102.4c30.72 0 51.2-20.48 51.2-51.2s-20.48-51.2-51.2-51.2z" p-id="8030" fill="#ffffff"></path></svg>