<?xml version="1.0" standalone="no"?><!DOCTYPE svg PUBLIC "-//W3C//DTD SVG 1.1//EN" "http://www.w3.org/Graphics/SVG/1.1/DTD/svg11.dtd"><svg t="1606887563981" class="icon" viewBox="0 0 1024 1024" version="1.1" xmlns="http://www.w3.org/2000/svg" p-id="9716" xmlns:xlink="http://www.w3.org/1999/xlink" width="200" height="200"><defs><style type="text/css"></style></defs><path d="M808 880c13.2544 0 24 10.7456 24 24 0 13.2544-10.7456 24-24 24H216c-13.2544 0-24-10.7456-24-24 0-13.2544 10.7456-24 24-24h592z m88-784c35.3456 0 64 28.6544 64 64v528c0 35.3456-28.6544 64-64 64H128c-35.3456 0-64-28.6544-64-64V160c0-35.3456 28.6544-64 64-64h768z m0 48H128c-8.8368 0-16 7.1632-16 16v528c0 8.8368 7.1632 16 16 16h768c8.8368 0 16-7.1632 16-16V160c0-8.8368-7.1632-16-16-16z m-384 64c70.6928 0 128 57.3072 128 128 0 38.6816-17.1584 73.3568-44.28 96.8272C673.4352 465.528 728 542.392 728 632c0 13.2544-10.7456 24-24 24-13.2544 0-24-10.7456-24-24 0-92.784-75.216-168-168-168s-168 75.216-168 168c0 13.2544-10.7456 24-24 24-13.2544 0-24-10.7456-24-24 0-89.608 54.5648-166.472 132.2816-199.1776C401.1584 409.3568 384 374.6816 384 336c0-70.6928 57.3072-128 128-128z m0 48c-44.1824 0-80 35.8176-80 80s35.8176 80 80 80 80-35.8176 80-80-35.8176-80-80-80z" fill="#ffffff" p-id="9717"></path></svg>