<?xml version="1.0" standalone="no"?><!DOCTYPE svg PUBLIC "-//W3C//DTD SVG 1.1//EN" "http://www.w3.org/Graphics/SVG/1.1/DTD/svg11.dtd"><svg t="1606887168391" class="icon" viewBox="0 0 1024 1024" version="1.1" xmlns="http://www.w3.org/2000/svg" p-id="2850" xmlns:xlink="http://www.w3.org/1999/xlink" width="200" height="200"><defs><style type="text/css"></style></defs><path d="M509.44 947.2a97.64864 97.64864 0 0 1-69.26336-28.6464L105.472 583.82336a97.97632 97.97632 0 0 1 0-138.55744l334.69952-334.72a98.06336 98.06336 0 0 1 138.53696 0L913.408 445.27104a97.97632 97.97632 0 0 1 0 138.55232L578.70848 918.528A97.64352 97.64352 0 0 1 509.44 947.2z m-26.87488-71.05536a38.0416 38.0416 0 0 0 53.76 0l334.68416-334.72512a38.01088 38.01088 0 0 0 0-53.76l-334.69952-334.71488a38.0416 38.0416 0 0 0-53.76 0L147.8912 487.66976a38.01088 38.01088 0 0 0 0 53.76l334.67904 334.72512z" fill="#ffffff" p-id="2851"></path><path d="M642.61632 484.16768h-102.51776V381.70624h-59.904v102.46144H377.7024v59.84768h102.51776v102.45632h59.904v-102.45632h102.51776V484.16768z" fill="#ffffff" p-id="2852"></path></svg>