<?xml version="1.0" standalone="no"?><!DOCTYPE svg PUBLIC "-//W3C//DTD SVG 1.1//EN" "http://www.w3.org/Graphics/SVG/1.1/DTD/svg11.dtd"><svg t="1606887699038" class="icon" viewBox="0 0 1024 1024" version="1.1" xmlns="http://www.w3.org/2000/svg" p-id="10898" xmlns:xlink="http://www.w3.org/1999/xlink" width="200" height="200"><defs><style type="text/css"></style></defs><path d="M947.2 153.6H76.8c-32 0-64 25.6-64 64v601.6c0 32 25.6 64 64 64h870.4c32 0 64-25.6 64-64V211.2c0-32-25.6-57.6-64-57.6zM44.8 281.6h710.4l-89.6 160H44.8V281.6z m748.8 0h51.2l-89.6 160H704l89.6-160z m185.6 524.8c0 12.8-19.2 32-38.4 32H70.4c-12.8 0-25.6-19.2-25.6-32V473.6h934.4v332.8z m0-364.8h-185.6l89.6-160h96v160z m0-192H44.8v-38.4c0-12.8 6.4-25.6 25.6-25.6h870.4c12.8 0 38.4 6.4 38.4 25.6v38.4zM76.8 614.4h320c6.4 0 19.2-6.4 19.2-19.2 0-6.4-6.4-19.2-19.2-19.2h-320c-6.4 6.4-12.8 12.8-12.8 25.6 0 6.4 6.4 12.8 12.8 12.8z m0 83.2H256c6.4 0 19.2-6.4 19.2-19.2 0-6.4-6.4-19.2-19.2-19.2H76.8c-6.4 0-19.2 6.4-19.2 19.2 6.4 12.8 12.8 19.2 19.2 19.2z" fill="#ffffff" p-id="10899"></path></svg>