<?xml version="1.0" standalone="no"?><!DOCTYPE svg PUBLIC "-//W3C//DTD SVG 1.1//EN" "http://www.w3.org/Graphics/SVG/1.1/DTD/svg11.dtd"><svg t="1606887593876" class="icon" viewBox="0 0 1024 1024" version="1.1" xmlns="http://www.w3.org/2000/svg" p-id="10658" xmlns:xlink="http://www.w3.org/1999/xlink" width="200" height="200"><defs><style type="text/css"></style></defs><path d="M798.72 76.8H947.2v145.92h51.2V25.6h-199.68zM947.2 801.28V947.2h-148.48v51.2H998.4v-197.12zM66.56 222.72V76.8h148.48V25.6H12.8v197.12zM215.04 947.2H66.56v-145.92H12.8V998.4h202.24z" fill="#ffffff" p-id="10659"></path><path d="M611.84 386.56c0-84.48-69.12-151.04-153.6-151.04s-153.6 69.12-153.6 151.04c0 48.64 23.04 94.72 64 122.88-40.96 15.36-76.8 43.52-104.96 79.36-33.28 43.52-51.2 94.72-51.2 148.48 0 12.8 10.24 23.04 23.04 23.04s23.04-10.24 23.04-23.04c0-110.08 89.6-197.12 199.68-197.12h2.56c87.04-5.12 151.04-71.68 151.04-153.6z m-46.08 0c0 58.88-48.64 104.96-107.52 104.96-58.88 0-107.52-46.08-107.52-104.96s48.64-104.96 107.52-104.96c58.88 0 107.52 46.08 107.52 104.96zM768 645.12V640l30.72-35.84-5.12-10.24c0-2.56-2.56-2.56-2.56-5.12-2.56-5.12-5.12-12.8-7.68-15.36-2.56-7.68-7.68-15.36-15.36-20.48l-7.68-7.68-46.08 5.12c-2.56 0-2.56-2.56-5.12-2.56l-15.36-43.52-12.8-2.56c-10.24-2.56-20.48-2.56-33.28-2.56s-20.48 0-33.28 2.56l-12.8 2.56-12.8 40.96c0 2.56-2.56 2.56-5.12 2.56l-43.52-7.68-10.24 7.68c-12.8 15.36-20.48 30.72-25.6 46.08l-5.12 10.24 30.72 35.84v2.56l-30.72 35.84 5.12 10.24c2.56 7.68 5.12 15.36 10.24 25.6 5.12 7.68 10.24 15.36 15.36 20.48l7.68 7.68 46.08-7.68s2.56 0 2.56 2.56l15.36 43.52 12.8 2.56c10.24 2.56 20.48 2.56 33.28 2.56s23.04 0 33.28-2.56l12.8-2.56 15.36-43.52 2.56-2.56 46.08 7.68 7.68-7.68c10.24-10.24 17.92-25.6 25.6-46.08l5.12-12.8-28.16-30.72z m-46.08 51.2h-7.68c-20.48 0-38.4 12.8-46.08 30.72l-7.68 20.48H640l-5.12-17.92c-7.68-20.48-25.6-33.28-46.08-33.28h-5.12l-23.04 2.56s0-2.56-2.56-2.56c-2.56-2.56-2.56-5.12-2.56-7.68l12.8-15.36c15.36-17.92 15.36-43.52 0-61.44l-12.8-15.36c2.56-5.12 5.12-7.68 5.12-10.24l20.48 2.56h7.68c20.48 0 38.4-12.8 46.08-30.72l7.68-17.92h20.48l5.12 17.92c7.68 20.48 25.6 33.28 46.08 33.28h5.12l20.48-2.56c0 2.56 2.56 2.56 2.56 5.12 2.56 2.56 2.56 5.12 2.56 5.12l-12.8 15.36c-12.8 17.92-12.8 43.52 0 61.44l12.8 15.36c-2.56 2.56-2.56 7.68-5.12 10.24l-17.92-5.12z" fill="#ffffff" p-id="10660"></path><path d="M650.24 583.68c-33.28 0-58.88 25.6-58.88 58.88s25.6 58.88 58.88 58.88c33.28 0 58.88-28.16 58.88-58.88 0-30.72-25.6-58.88-58.88-58.88z m0 46.08c7.68 0 15.36 5.12 15.36 15.36 0 7.68-5.12 15.36-15.36 15.36-7.68 0-15.36-5.12-15.36-15.36 0-10.24 5.12-15.36 15.36-15.36z" fill="#ffffff" p-id="10661"></path></svg>