<?xml version="1.0" standalone="no"?><!DOCTYPE svg PUBLIC "-//W3C//DTD SVG 1.1//EN" "http://www.w3.org/Graphics/SVG/1.1/DTD/svg11.dtd"><svg t="1560339053118" class="icon" style="" viewBox="0 0 1024 1024" version="1.1" xmlns="http://www.w3.org/2000/svg" p-id="19025" xmlns:xlink="http://www.w3.org/1999/xlink" width="128" height="128"><defs><style type="text/css"></style></defs><path d="M284.16 614.4h453.12c15.36 0 28.16-12.8 28.16-25.6 0-15.36-12.8-25.6-28.16-25.6h-453.12c-15.36 0-28.16 10.24-28.16 25.6 0 12.8 12.8 25.6 28.16 25.6zM281.6 460.8h460.8c12.8 0 25.6-12.8 25.6-25.6s-12.8-25.6-25.6-25.6h-460.8c-12.8 0-25.6 12.8-25.6 25.6s12.8 25.6 25.6 25.6zM281.6 307.2h460.8c12.8 0 25.6-12.8 25.6-25.6s-12.8-25.6-25.6-25.6h-460.8c-12.8 0-25.6 12.8-25.6 25.6s12.8 25.6 25.6 25.6z" p-id="19026"></path><path d="M870.4 102.4v780.8c-15.36-7.68-33.28-12.8-51.2-12.8-38.4 0-71.68 20.48-89.6 51.2h-28.16c-17.92-30.72-51.2-51.2-89.6-51.2s-71.68 20.48-89.6 51.2h-28.16c-17.92-30.72-51.2-51.2-89.6-51.2s-71.68 20.48-89.6 51.2h-28.16c-17.92-30.72-51.2-51.2-89.6-51.2-17.92 0-35.84 5.12-51.2 12.8V102.4h724.48m25.6-51.2h-768c-15.36 0-25.6 10.24-25.6 25.6v870.4c0 15.36 10.24 25.6 25.6 25.6h2.56c10.24 0 20.48-5.12 25.6-15.36 7.68-20.48 25.6-35.84 48.64-35.84s40.96 15.36 48.64 35.84c2.56 10.24 12.8 15.36 25.6 15.36h58.88c10.24 0 20.48-5.12 25.6-15.36 7.68-20.48 25.6-35.84 48.64-35.84s40.96 15.36 48.64 35.84c2.56 10.24 12.8 15.36 25.6 15.36h58.88c10.24 0 20.48-5.12 25.6-15.36 7.68-20.48 25.6-35.84 48.64-35.84s40.96 15.36 48.64 35.84c2.56 10.24 12.8 15.36 25.6 15.36h58.88c10.24 0 20.48-5.12 25.6-15.36 7.68-20.48 25.6-35.84 48.64-35.84s40.96 15.36 48.64 35.84c2.56 10.24 12.8 15.36 25.6 15.36h2.56c15.36 0 25.6-10.24 25.6-25.6v-870.4c-7.68-15.36-17.92-25.6-33.28-25.6z" p-id="19027"></path></svg>