<?xml version="1.0" standalone="no"?><!DOCTYPE svg PUBLIC "-//W3C//DTD SVG 1.1//EN" "http://www.w3.org/Graphics/SVG/1.1/DTD/svg11.dtd"><svg t="1560338951847" class="icon" style="" viewBox="0 0 1025 1024" version="1.1" xmlns="http://www.w3.org/2000/svg" p-id="18102" xmlns:xlink="http://www.w3.org/1999/xlink" width="128.125" height="128"><defs><style type="text/css"></style></defs><path d="M529.008294 204.546465l-125.284709 125.284709-125.28471-125.284709-36.051314 36.051314 101.2505 101.2505H250.313736v51.136616h127.841541v67.500334H250.058053v51.136616h128.097224v188.182747h51.136616v-188.182747h127.585857v-51.136616h-127.585857v-67.500334h127.84154v-51.136616h-93.068641l100.994817-101.2505L529.008294 204.546465z" fill="" p-id="18103"></path><path d="M946.027399 0H76.704924a76.704924 76.704924 0 0 0-76.704924 76.704924v869.322475a76.704924 76.704924 0 0 0 76.704924 76.704924h377.899594a25.568308 25.568308 0 0 0 0-51.136616H76.704924a25.568308 25.568308 0 0 1-25.568308-25.568308V76.704924a25.568308 25.568308 0 0 1 25.568308-25.568308h869.322475a25.568308 25.568308 0 0 1 25.568308 25.568308v274.603629a25.568308 25.568308 0 0 0 51.136616 0V76.704924a76.704924 76.704924 0 0 0-76.704924-76.704924z" fill="" p-id="18104"></path><path d="M856.282638 747.361645a119.659682 119.659682 0 0 0-76.704925-76.704924 25.568308 25.568308 0 1 0-15.596668 48.579785 68.267383 68.267383 0 0 1 43.721807 43.466124 25.568308 25.568308 0 0 0 24.289893 17.642133 25.568308 25.568308 0 0 0 7.926175-1.278416 25.568308 25.568308 0 0 0 16.363718-31.704702z" fill="" p-id="18105"></path><path d="M907.419254 871.112256a178.978157 178.978157 0 1 0-36.562681 35.795632l108.153943 108.153943a25.568308 25.568308 0 1 0 36.051315-36.051315z m-142.415476 19.687598a127.84154 127.84154 0 1 1 127.84154-127.841541 127.84154 127.84154 0 0 1-127.84154 127.841541z" fill="" p-id="18106"></path></svg>