<?xml version="1.0" standalone="no"?><!DOCTYPE svg PUBLIC "-//W3C//DTD SVG 1.1//EN"
  "http://www.w3.org/Graphics/SVG/1.1/DTD/svg11.dtd">
<svg t="1560338906915" class="icon" style="" viewBox="0 0 1024 1024" version="1.1"
  xmlns="http://www.w3.org/2000/svg" p-id="17618" xmlns:xlink="http://www.w3.org/1999/xlink"
  width="128" height="128">
  <defs>
    <style type="text/css"></style>
  </defs>
  <path
    d="M853.333333 938.666667H170.666667a85.333333 85.333333 0 0 1-85.333334-85.333334V170.666667a85.333333 85.333333 0 0 1 85.333334-85.333334h682.666666a85.333333 85.333333 0 0 1 85.333334 85.333334v682.666666a85.333333 85.333333 0 0 1-85.333334 85.333334z m21.333334-746.666667a42.666667 42.666667 0 0 0-42.666667-42.666667H192a42.666667 42.666667 0 0 0-42.666667 42.666667v640a42.666667 42.666667 0 0 0 42.666667 42.666667h640a42.666667 42.666667 0 0 0 42.666667-42.666667V192z"
    p-id="17619"></path>
  <path
    d="M416 362.666667H362.666667v53.333333a32 32 0 0 1-64 0V362.666667h-53.333334a32 32 0 0 1 0-64H298.666667v-53.333334a32 32 0 0 1 64 0V298.666667h53.333333a32 32 0 0 1 0 64z m192 362.666666h170.666667a32 32 0 0 1 0 64h-170.666667a32 32 0 0 1 0-64z m0-128h170.666667a32 32 0 0 1 0 64h-170.666667a32 32 0 0 1 0-64z m0-298.666666h170.666667a32 32 0 0 1 0 64h-170.666667a32 32 0 0 1 0-64zM386.581333 682.666667l45.269334 45.248a32 32 0 1 1-45.269334 45.269333L341.333333 727.914667l-45.248 45.269333a32 32 0 1 1-45.269333-45.269333L296.085333 682.666667l-45.269333-45.248a32 32 0 1 1 45.269333-45.269334L341.333333 637.418667l45.248-45.269334a32 32 0 1 1 45.269334 45.269334z"
    p-id="17620"></path>
</svg>
