<?xml version="1.0" standalone="no"?><!DOCTYPE svg PUBLIC "-//W3C//DTD SVG 1.1//EN" "http://www.w3.org/Graphics/SVG/1.1/DTD/svg11.dtd"><svg t="1560338380578" class="icon" style="" viewBox="0 0 1024 1024" version="1.1" xmlns="http://www.w3.org/2000/svg" p-id="14454" xmlns:xlink="http://www.w3.org/1999/xlink" width="128" height="128"><defs><style type="text/css"></style></defs><path d="M393.8 957.7c-10.9 0-21.8-3.4-31-10.2l-47.2-34.8c-18.3-13.5-42.7-14.5-62.1-2.7l-41.1 25.2c-17.4 10.6-39.2 11.1-56.9 1.1-17.8-9.9-28.8-28.8-28.8-49.1V244c0-95 77.3-172.3 172.3-172.3h419.4c45.5 0 88.5 17.6 120.9 49.5 32.4 31.9 50.7 74.6 51.4 120.1l10 644.9c0.3 20.5-10.5 39.5-28.2 49.7-17.7 10.2-39.6 10-57.2-0.6L768 906.8c-19.4-11.7-43.8-10.6-62 3l-50.5 37.5c-18.2 13.5-42.8 13.8-61.3 0.8l-53-37.4c-19.2-13.5-45-13.5-64.2 0l-53 37.4c-9.1 6.4-19.6 9.6-30.2 9.6zM282.6 837.1c25.1 0 50.1 7.9 71.3 23.5l40.1 29.5 45.7-32.2c41.5-29.3 97.2-29.3 138.7-0.1l45.7 32.2 43.3-32.2c39.4-29.3 92-31.8 134-6.5l34.4 20.8-9.8-629.8c-0.4-28.4-11.8-55.1-32.1-75.1-20.3-20-47.1-31-75.6-31H299c-59.4 0-107.7 48.3-107.7 107.7v628.3l28.4-17.4c19.5-11.8 41.2-17.7 62.9-17.7z" p-id="14455"></path><path d="M676 403H348c-17.6 0-32-14.4-32-32s14.4-32 32-32h328c17.6 0 32 14.4 32 32s-14.4 32-32 32zM728.2 557.5H299.1c-17.6 0-32-14.4-32-32s14.4-32 32-32h429.1c17.6 0 32 14.4 32 32s-14.4 32-32 32z" p-id="14456"></path></svg>