<?xml version="1.0" standalone="no"?><!DOCTYPE svg PUBLIC "-//W3C//DTD SVG 1.1//EN" "http://www.w3.org/Graphics/SVG/1.1/DTD/svg11.dtd"><svg t="1560339371772" class="icon" style="" viewBox="0 0 1024 1024" version="1.1" xmlns="http://www.w3.org/2000/svg" p-id="23023" xmlns:xlink="http://www.w3.org/1999/xlink" width="128" height="128"><defs><style type="text/css"></style></defs><path d="M832.2 127.9v768.4H193V127.9h639.2m32-64H161c-17.7 0-32 14.3-32 32v832.4c0 17.7 14.3 32 32 32h703.2c17.7 0 32-14.3 32-32V95.9c0-17.7-14.4-32-32-32z" p-id="23024"></path><path d="M582.1 310.1l-45.3 45.3 74.5 74.5H304v63.8H688.7c8.4 0 16.9-3.2 23.3-9.7 6.2-6.2 9.3-14.5 9.1-22.7v-0.7c0-11.2-6-21-15-26.4l-124-124.1zM721.2 529.8H336.4c-8.4 0-16.9 3.2-23.3 9.7-6.2 6.2-9.3 14.5-9.1 22.7v0.7c0 11.2 6 21 15 26.4l124.1 124.1 45.3-45.3-74.5-74.5h307.3v-63.8z" p-id="23025"></path></svg>