<svg width="18" height="18" viewBox="0 0 18 18" fill="none" xmlns="http://www.w3.org/2000/svg">
<circle cx="9" cy="9" r="8.5" fill="#1890FF" stroke="#F5F5F5"/>
<g clip-path="url(#clip0)">
<path d="M10.5701 6.7757H9.26168V5.84112C9.82243 5.65421 10.2336 5.09346 10.2336 4.45794C10.2336 3.6729 9.59813 3 8.7757 3H8.73832C7.95327 3 7.28038 3.63551 7.28038 4.45794C7.28038 5.09346 7.69159 5.65421 8.25234 5.84112V6.7757H6.94393V7.4486H8.32711V9.72897C8.32711 9.72897 7.84112 11.0748 6.79439 11.0374C5.74767 11 4.62617 10.0654 4.62617 10.0654L5 10.028L4.06542 8.90654L3.76636 10.2523L4.17757 10.1776C4.17757 10.1776 4.96262 11.5607 6.15888 12.0841C7.35514 12.6449 8.5514 13.2804 8.7757 13.3178C8.85047 13.3178 9 13.243 9.18692 13.1682V7.4486H10.5701V6.7757ZM8.7757 5.28037C8.32711 5.28037 7.95327 4.94393 7.95327 4.49533C7.95327 4.04673 8.28972 3.71028 8.73832 3.71028H8.7757C9.2243 3.71028 9.56075 4.04673 9.56075 4.49533C9.56075 4.94393 9.2243 5.28037 8.7757 5.28037Z" fill="#F5F5F5"/>
<path d="M13.6355 8.90654C13.2243 8.5701 12.6262 8.42056 11.8037 8.42056H9.59814V15H10.6449V12.5701H11.6542C12.4019 12.5701 13 12.3832 13.486 12.0094C13.972 11.5981 14.1963 11.1122 14.1963 10.4393C14.2336 9.72898 14.0467 9.24299 13.6355 8.90654ZM11.8037 11.8224H10.6822V9.09346H11.5794C12.2523 9.09346 12.6262 9.28038 12.8505 9.57944C13.0374 9.84112 13.1122 10.1402 13.1122 10.4393V10.514C13.0748 11.1122 12.8131 11.7477 11.8037 11.8224Z" fill="#F5F5F5"/>
</g>
<defs>
<clipPath id="clip0">
<rect width="12" height="12" fill="white" transform="translate(3 3)"/>
</clipPath>
</defs>
</svg>
