<svg width="18" height="18" viewBox="0 0 18 18" fill="none" xmlns="http://www.w3.org/2000/svg">
<path d="M6.17519 5.60392H5.48613C5.3543 5.60392 5.24707 5.4967 5.24707 5.36486V3.80568C5.24707 3.67385 5.3543 3.56662 5.48613 3.56662H6.17519C6.30703 3.56662 6.41426 3.67385 6.41426 3.80568V5.36486C6.41426 5.4967 6.30703 5.60392 6.17519 5.60392ZM12.549 5.60392H11.86C11.7281 5.60392 11.6209 5.4967 11.6209 5.36486V3.80568C11.6209 3.67385 11.7281 3.56662 11.86 3.56662H12.549C12.6809 3.56662 12.7881 3.67385 12.7881 3.80568V5.36486C12.7881 5.4967 12.6809 5.60392 12.549 5.60392ZM6.04863 15.4178H5.30683C5.175 15.4178 5.06777 15.3106 5.06777 15.1787V13.5264C5.06777 13.3945 5.175 13.2873 5.30683 13.2873H6.04863C6.18047 13.2873 6.28769 13.3945 6.28769 13.5264V15.1787C6.28594 15.3106 6.18047 15.4178 6.04863 15.4178ZM12.7107 15.4178H11.9707C11.8389 15.4178 11.7316 15.3106 11.7316 15.1787V13.5264C11.7316 13.3945 11.8389 13.2873 11.9707 13.2873H12.7125C12.8443 13.2873 12.9516 13.3945 12.9516 13.5264V15.1787C12.9498 15.3106 12.8443 15.4178 12.7107 15.4178Z" fill="#1C1A1A"/>
<path d="M11.4311 0.882416H6.6041C6.06797 0.882416 5.63027 1.33769 5.63027 1.89667V5.71991H5.86933V1.89667C5.86933 1.47304 6.1998 1.13027 6.60586 1.13027H11.4311C11.8371 1.13027 12.1676 1.4748 12.1676 1.89667V5.71991H12.4066V1.89667C12.4049 1.33769 11.9672 0.882416 11.4311 0.882416Z" fill="#999999"/>
<path d="M12.3533 6H5.53846V16.6154H12.4615V6H12.3533Z" fill="#3476B2"/>
<path d="M12.4049 5.73752H5.26289V17.0649H12.7687V5.73752H12.4049ZM12.3908 16.6694H5.64434V6.13478H12.3926V16.6694H12.3908Z" fill="#666666"/>
<path d="M5.96699 4.21799H12.0699V5.62228H5.96699V4.21799Z" fill="#999999" stroke="#999999" stroke-width="0.195312"/>
<path d="M11.4311 1.13028H6.6041C6.19805 1.13028 5.86758 1.47481 5.86758 1.89669V4.12032H12.1658V1.89669C12.1658 1.47481 11.8371 1.13028 11.4311 1.13028Z" fill="#C4C4C4"/>
<path d="M11.4311 1.13028H6.6041C6.19805 1.13028 5.86758 1.47481 5.86758 1.89669V4.12032H12.1658V1.89669C12.1658 1.47481 11.8371 1.13028 11.4311 1.13028Z" stroke="#BDBDBD"/>
<path d="M8.94902 4.87264C8.25293 4.87264 7.41269 5.07303 7.04004 5.17498C6.93281 5.20486 6.82031 5.14334 6.79219 5.03963L6.36855 3.48748C6.34922 3.41541 6.37383 3.33983 6.43359 3.29412C6.71836 3.07088 7.53398 2.5242 8.93672 2.5242C10.3113 2.5242 11.2623 3.09197 11.591 3.31346C11.6561 3.3574 11.6877 3.43475 11.6701 3.51033L11.308 5.03963C11.2834 5.14334 11.1727 5.20838 11.0637 5.18201C10.6559 5.08358 9.69785 4.87264 8.94902 4.87264Z" fill="#E5E5E5"/>
<path d="M6.14135 2.47545C6.16605 2.49165 6.19758 2.49694 6.23411 2.491C6.27065 2.48507 6.31149 2.46802 6.35429 2.44085C6.39709 2.41368 6.44102 2.3769 6.48357 2.33262C6.52612 2.28835 6.56646 2.23744 6.60228 2.1828C6.6381 2.12817 6.6687 2.07088 6.69234 2.0142C6.71598 1.95752 6.73218 1.90257 6.74004 1.85248C6.74789 1.80239 6.74724 1.75815 6.73811 1.72228C6.72899 1.6864 6.71157 1.6596 6.68685 1.64341C6.66215 1.6272 6.63062 1.62191 6.59409 1.62785C6.55755 1.63378 6.51671 1.65083 6.47391 1.678C6.43111 1.70518 6.38718 1.74195 6.34463 1.78623C6.30208 1.8305 6.26174 1.88141 6.22592 1.93605C6.1901 1.99068 6.1595 2.04798 6.13586 2.10465C6.11222 2.16133 6.09602 2.21628 6.08816 2.26637C6.08031 2.31646 6.08096 2.3607 6.09009 2.39658C6.09921 2.43245 6.11663 2.45925 6.14135 2.47545Z" fill="#D8D8D8"/>
<path d="M6.14135 2.47545C6.16605 2.49165 6.19758 2.49694 6.23411 2.491C6.27065 2.48507 6.31149 2.46802 6.35429 2.44085C6.39709 2.41368 6.44102 2.3769 6.48357 2.33262C6.52612 2.28835 6.56646 2.23744 6.60228 2.1828C6.6381 2.12817 6.6687 2.07088 6.69234 2.0142C6.71598 1.95752 6.73218 1.90257 6.74004 1.85248C6.74789 1.80239 6.74724 1.75815 6.73811 1.72228C6.72899 1.6864 6.71157 1.6596 6.68685 1.64341C6.66215 1.6272 6.63062 1.62191 6.59409 1.62785C6.55755 1.63378 6.51671 1.65083 6.47391 1.678C6.43111 1.70518 6.38718 1.74195 6.34463 1.78623C6.30208 1.8305 6.26174 1.88141 6.22592 1.93605C6.1901 1.99068 6.1595 2.04798 6.13586 2.10465C6.11222 2.16133 6.09602 2.21628 6.08816 2.26637C6.08031 2.31646 6.08096 2.3607 6.09009 2.39658C6.09921 2.43245 6.11663 2.45925 6.14135 2.47545Z" stroke="#BDBDBD"/>
<path d="M11.4345 2.18281C11.5068 2.29315 11.596 2.38597 11.6825 2.44085C11.7689 2.49574 11.8455 2.50819 11.8954 2.47547C11.9453 2.44276 11.9644 2.36755 11.9486 2.26639C11.9327 2.16524 11.8832 2.04642 11.8108 1.93609C11.7385 1.82575 11.6493 1.73293 11.5628 1.67804C11.4764 1.62316 11.3998 1.61071 11.3499 1.64342C11.3 1.67614 11.2809 1.75135 11.2967 1.85251C11.3126 1.95366 11.3621 2.07247 11.4345 2.18281Z" fill="#D8D8D8"/>
<path d="M5.02556 3.12261C5.02888 3.15198 5.0464 3.17944 5.07711 3.20344C5.10783 3.22744 5.15114 3.24751 5.20458 3.26249C5.25802 3.27748 5.32054 3.28709 5.38856 3.29079C5.45658 3.29448 5.52878 3.29217 5.60104 3.28401C5.67329 3.27584 5.74419 3.26197 5.80967 3.24319C5.87516 3.22441 5.93395 3.20109 5.9827 3.17455C6.03144 3.14802 6.06918 3.11879 6.09377 3.08854C6.11835 3.05829 6.1293 3.02761 6.12598 2.99825C6.11928 2.93895 6.05488 2.88864 5.94696 2.85837C5.83904 2.8281 5.69643 2.82036 5.5505 2.83686C5.40458 2.85335 5.26729 2.89272 5.16885 2.94631C5.0704 2.9999 5.01886 3.06332 5.02556 3.12261Z" fill="#999999"/>
<path d="M12.4158 3.28325C12.4881 3.29142 12.5603 3.29373 12.6283 3.29004C12.6963 3.28635 12.7589 3.27674 12.8123 3.26175C12.8658 3.24676 12.9091 3.2267 12.9398 3.20269C12.9705 3.17869 12.988 3.15123 12.9914 3.12186C12.9947 3.0925 12.9837 3.06182 12.9591 3.03157C12.9345 3.00131 12.8968 2.97208 12.848 2.94555C12.7993 2.91901 12.7405 2.89569 12.675 2.87691C12.6095 2.85813 12.5386 2.84426 12.4664 2.8361C12.3941 2.82793 12.3219 2.82562 12.2539 2.82931C12.1858 2.833 12.1233 2.84261 12.0699 2.8576C12.0164 2.87259 11.9731 2.89265 11.9424 2.91666C11.9117 2.94066 11.8941 2.96812 11.8908 2.99749C11.8875 3.02685 11.8985 3.05753 11.923 3.08778C11.9476 3.11804 11.9854 3.14727 12.0341 3.1738C12.0829 3.20034 12.1417 3.22366 12.2072 3.24244C12.2727 3.26122 12.3436 3.27509 12.4158 3.28325Z" fill="#999999"/>
</svg>
