<svg width="18" height="18" viewBox="0 0 18 18" fill="none" xmlns="http://www.w3.org/2000/svg">
<circle cx="9" cy="9" r="8.5" fill="#F2F2F2" stroke="#666666"/>
<path d="M12.999 4.18908C12.999 4.08577 12.9149 4 12.8115 4H5.18755C5.08508 4 5 4.0848 5 4.18908V5.84795C5 5.95127 5.08411 6.03704 5.18755 6.03704H12.8124C12.9149 6.03704 13 5.95224 13 5.84795L12.999 4.18908Z" fill="#8F4243" fill-opacity="0.96"/>
<path d="M7.88431 5.84595H10.2055V14.3497H7.88431V5.84595Z" fill="#D1D3D3"/>
<path d="M7.88431 5.84595H10.2055V6.73928H7.88431V5.84595ZM7.88431 10.4534H10.2055V11.1363H7.88431V10.4534Z" fill="black"/>
<path d="M13 14.8542C13 14.9346 12.9691 15 12.9312 15H5.06878C5.03086 15 5 14.9346 5 14.8542V14.331C5 14.2506 5.03086 14.1852 5.06878 14.1852H12.9312C12.9691 14.1852 13 14.2506 13 14.331V14.8542Z" fill="#333E48"/>
<path d="M7.09014 12.6726C6.77607 12.6726 6.52339 12.5289 6.35779 12.2548C6.14223 11.8993 6.13652 11.4252 6.14508 11.2074C6.15793 10.8533 6.23217 10.4978 6.34352 10.2578L6.71754 10.443C6.54909 10.8089 6.47057 11.6341 6.70755 12.0252C6.79749 12.1733 6.91883 12.2415 7.08871 12.2415V12.6726H7.09014Z" fill="#333E48"/>
<path d="M7.09014 9.26074C6.88314 9.26074 6.20933 9.77778 6.20933 10.2859C6.20933 10.7956 6.88314 10.683 7.09014 10.683V9.26074Z" fill="#333333"/>
<path d="M7.09014 9.26074V10.6844C7.00449 10.6844 6.84032 10.7037 6.67757 10.6904V9.48741C6.84175 9.34963 7.00592 9.26074 7.09014 9.26074Z" fill="black"/>
<path d="M10.6177 12.6726C10.9317 12.6726 11.1844 12.5289 11.35 12.2548C11.5656 11.8993 11.5713 11.4252 11.5627 11.2074C11.5499 10.8533 11.4756 10.4978 11.3643 10.2578L10.9903 10.443C11.1587 10.8089 11.2372 11.6341 11.0003 12.0252C10.9103 12.1733 10.789 12.2415 10.6191 12.2415L10.6177 12.6726Z" fill="#333E48"/>
<path d="M10.6177 9.26074C10.8247 9.26074 11.4985 9.77778 11.4985 10.2859C11.4985 10.7956 10.8247 10.683 10.6177 10.683V9.26074Z" fill="#333333"/>
<path d="M10.6177 9.26074V10.6844C10.7033 10.6844 10.8675 10.7037 11.0302 10.6904V9.48741C10.8675 9.34963 10.7033 9.26074 10.6177 9.26074Z" fill="black"/>
<path d="M10.8887 14.1852V8.7981C10.8887 8.62433 10.7502 8.48148 10.5817 8.48148H7.38618C7.2177 8.48148 7.07919 8.62433 7.07919 8.7981V14.1852H10.8887Z" fill="#333E48"/>
<path d="M7.63747 13.2036H8.08002V14.3236H7.63747V13.2036ZM9.54186 13.2036H9.98441V14.3236H9.54186V13.2036Z" fill="#A4A9AD"/>
<path d="M7.71056 9.79022H9.98897V10.6465H7.71056V9.79022Z" fill="white"/>
</svg>
