<svg width="18" height="18" viewBox="0 0 18 18" fill="none" xmlns="http://www.w3.org/2000/svg">
<circle cx="9" cy="9" r="8.5" fill="#1890FF" stroke="#F5F5F5"/>
<path d="M8.69 9.34094L7.745 10.3759L8.105 10.6459L9.005 9.61094L8.69 9.34094Z" fill="#F5F5F5"/>
<path d="M8.06 10.2409H5.675V10.6909H8.06V10.2409Z" fill="#F5F5F5"/>
<path d="M5 8.57595V12.3109H5.9V8.57595H5ZM5.45 7.72095L12.425 11.9059L12.695 11.5009L5.675 7.31595L5.45 7.72095Z" fill="#F5F5F5"/>
<path d="M12.515 11.9509L13.865 11.0959L13.64 10.6909L12.29 11.5909L12.515 11.9509ZM7.385 4.07594L15.395 9.16094L12.875 10.5109C12.74 10.6009 12.56 10.6009 12.425 10.5109L5.89999 6.46094C5.67499 6.32594 5.62999 6.01094 5.76499 5.83094L6.75499 4.21094C6.88999 3.98594 7.16 3.94094 7.385 4.07594Z" fill="#F5F5F5"/>
</svg>
